<?xml version="1.0" encoding="utf-8"?>
<!-- Generator: Adobe Illustrator 25.2.0, SVG Export Plug-In . SVG Version: 6.00 Build 0)  -->
<svg version="1.1" id="Layer_1" xmlns="http://www.w3.org/2000/svg" xmlns:xlink="http://www.w3.org/1999/xlink" x="0px" y="0px"
	 viewBox="0 0 26 28" style="enable-background:new 0 0 26 28;" xml:space="preserve">
<style type="text/css">
	.st0{fill:#FFFFFF;}
</style>
<path class="st0" d="M10,24c0,1.1-0.9,2-2,2s-2-0.9-2-2s0.9-2,2-2S10,22.9,10,24z M24,24c0,1.1-0.9,2-2,2s-2-0.9-2-2s0.9-2,2-2
	S24,22.9,24,24z M26,7v8c0,0.5-0.4,0.9-0.9,1L8.8,17.9C8.9,18.3,9,18.6,9,19c0,0.4-0.2,0.7-0.4,1H23c0.5,0,1,0.5,1,1s-0.5,1-1,1H7
	c-0.5,0-1-0.5-1-1c0-0.5,0.7-1.7,1-2.1L4.2,6H1C0.5,6,0,5.5,0,5s0.5-1,1-1h4c1,0,1.1,1.2,1.2,2H25C25.5,6,26,6.5,26,7z"/>
</svg>
