<?xml version="1.0" encoding="utf-8"?>
<!-- Generator: Adobe Illustrator 25.2.0, SVG Export Plug-In . SVG Version: 6.00 Build 0)  -->
<svg version="1.1" id="Layer_1" xmlns="http://www.w3.org/2000/svg" xmlns:xlink="http://www.w3.org/1999/xlink" x="0px" y="0px"
	 viewBox="0 0 32 32" style="enable-background:new 0 0 32 32;" xml:space="preserve">
<style type="text/css">
	.st0{opacity:0.75;fill:#FFFFFF;enable-background:new    ;}
	.st1{display:none;}
	.st2{display:inline;opacity:0.3;fill:#FFFFFF;enable-background:new    ;}
</style>
<g id="Layer_1_1_">
	<g id="circle_hot">
		<circle class="st0" cx="16" cy="15.9" r="15.9"/>
	</g>
	<g id="circle_normal" class="st1">
		<circle class="st2" cx="16" cy="15.9" r="15.9"/>
	</g>
	<g id="facebook_1_">
		<g id="rPZz0o.tif">
			<g>
				<path d="M17.5,7.6c0.7,0,1.4,0,2.2,0c0.3,0.1,0.6,0.2,1,0.2c0,0.9,0,1.9,0,2.9c-0.5,0-1-0.1-1.5,0s-1.3,0-1.4,0.7
					c-0.2,0.9-0.2,1.8-0.3,2.8c1.2,0,2.1,0,3.2,0c-0.1,0.9-0.2,1.8-0.3,2.7c0,0.5-0.1,0.6-0.6,0.6c-0.7,0-1.5,0-2.2,0
					c0,3,0,5.9,0,8.8c-1.1,0-2.2,0-3.3,0c0-2.9,0-5.9,0-8.8c-0.9,0-1.8,0-2.7,0c0-1.1,0-2.3,0-3.4c0.9,0,1.8,0,2.7,0
					c0-1,0-1.9,0-2.9c0.1-1.8,1.3-3.3,3-3.5C17.2,7.8,17.3,7.7,17.5,7.6z"/>
			</g>
		</g>
	</g>
</g>
</svg>
