<?xml version="1.0" encoding="utf-8"?>
<!-- Generator: Adobe Illustrator 25.2.0, SVG Export Plug-In . SVG Version: 6.00 Build 0)  -->
<svg version="1.1" id="Layer_1" xmlns="http://www.w3.org/2000/svg" xmlns:xlink="http://www.w3.org/1999/xlink" x="0px" y="0px"
	 viewBox="0 0 32 32" style="enable-background:new 0 0 32 32;" xml:space="preserve">
<style type="text/css">
	.st0{display:none;}
	.st1{display:inline;fill:#006754;}
	.st2{opacity:0.75;fill:#FFFFFF;enable-background:new    ;}
	.st3{display:inline;opacity:0.3;fill:#FFFFFF;enable-background:new    ;}
	.st4{fill:#010101;}
</style>
<g id="Background" class="st0">
	<rect x="-0.2" y="-0.4" class="st1" width="32.2" height="32.5"/>
</g>
<g id="Layer_1_1_">
	<g id="circle_hot">
		<circle class="st2" cx="16" cy="15.9" r="15.9"/>
	</g>
	<g id="circle_normal" class="st0">
		<circle class="st3" cx="16" cy="15.9" r="15.9"/>
	</g>
	<g id="twitter">
		<g id="icon_1_">
			<path class="st4" d="M12.9,24.5C11,24.5,9.1,24,7.5,23c-0.2-0.1-0.3-0.4-0.2-0.7c0.1-0.3,0.3-0.4,0.6-0.4
				c1.2,0.1,2.3-0.1,3.3-0.6c-1.1-0.4-2.2-1.2-2.6-2.4c-0.1-0.2,0-0.4,0.1-0.6c0.1-0.1,0.2-0.1,0.3-0.2c-0.2-0.2-0.4-0.3-0.6-0.5
				c-0.7-0.7-1-1.5-1-2.4V15l0.2-0.2c0.2-0.2,0.4-0.1,0.6-0.1c0.1,0,0.1,0,0.2,0C8,14,7.8,13.2,7.8,12.4c0-0.7,0.2-1.4,0.5-2
				c0.1-0.2,0.3-0.3,0.5-0.3s0.4,0.1,0.5,0.2c1.5,1.9,3.7,3.1,6,3.4c0-0.1,0-0.1,0-0.2c0-2.2,1.8-4.1,4-4.1c1,0,2,0.4,2.7,1.1
				c0.6-0.1,1.1-0.4,1.6-0.6c0.2-0.1,0.5-0.1,0.7,0.1c0.2,0.2,0.3,0.4,0.2,0.7c-0.1,0.2-0.2,0.4-0.3,0.6c0.2,0,0.4,0,0.6,0.2
				s0.2,0.5,0,0.7c-0.4,0.6-0.9,1.2-1.5,1.6c0,0.1,0,0.1,0,0.2c0,2.6-1,5.2-2.6,7.1c-0.9,1.1-2,1.9-3.2,2.5
				C15.9,24.2,14.4,24.5,12.9,24.5z M9.8,22.9c1,0.4,2,0.6,3.1,0.6c5.8,0,9.2-4.8,9.2-9.5c0-0.1,0-0.3,0-0.4c0-0.2,0.1-0.4,0.2-0.5
				s0.2-0.2,0.4-0.3c-0.3,0-0.5-0.1-0.6-0.4c-0.1-0.3,0-0.6,0.2-0.7c0.1,0,0.1-0.1,0.2-0.1c-0.2,0.1-0.4,0.1-0.6,0.1s-0.4,0-0.6-0.2
				c-0.5-0.6-1.3-0.9-2.1-0.9c-1.6,0-2.9,1.3-2.9,3c0,0.2,0,0.4,0.1,0.6c0,0.2,0,0.4-0.1,0.5s-0.3,0.2-0.5,0.2
				c-2.6-0.1-5-1.3-6.8-3.2c-0.1,0.2-0.1,0.5-0.1,0.7c0,0.9,0.4,1.8,1.2,2.4c0.2,0.2,0.3,0.4,0.2,0.7s-0.4,0.4-0.6,0.4
				c-0.2,0-0.6-0.1-0.9-0.1c0.2,1,1.2,1.8,2.2,2c0.3,0.1,0.4,0.3,0.4,0.6S11.2,19,10.9,19c-0.1,0-0.1,0-0.2,0.1
				c-0.2,0.1-0.4,0.1-0.6,0.1l0,0c0.6,0.7,1.6,1.1,2.5,1.2c0.2,0,0.5,0.2,0.5,0.4s0,0.5-0.2,0.6C12,22.2,10.9,22.7,9.8,22.9z
				 M9.1,19.2L9.1,19.2L9.1,19.2z"/>
		</g>
	</g>
</g>
</svg>
