<?xml version="1.0" encoding="utf-8"?>
<!-- Generator: Adobe Illustrator 25.2.0, SVG Export Plug-In . SVG Version: 6.00 Build 0)  -->
<svg version="1.1" id="Layer_1" xmlns="http://www.w3.org/2000/svg" xmlns:xlink="http://www.w3.org/1999/xlink" x="0px" y="0px"
	 viewBox="0 0 28 28" style="enable-background:new 0 0 28 28;" xml:space="preserve">
<style type="text/css">
	.st0{fill:#DC143C;}
</style>
<path class="st0" d="M14,0c7.7,0,14,6.3,14,14c0,7.7-6.2,14-14,14C6.2,28,0,21.7,0,14C0,6.3,6.3,0,14,0z M23.7,21.1
	c1.5-2,2.3-4.5,2.3-7.1c0-6.6-5.4-12-12-12S2,7.4,2,14c0,2.7,0.9,5.1,2.3,7.1C4.9,18.3,6.2,16,9.1,16c1.3,1.2,3,2,4.9,2
	s3.6-0.8,4.9-2C21.7,16,23.1,18.3,23.7,21.1z M20,11c0-3.3-2.7-6-6-6s-6,2.7-6,6s2.7,6,6,6S20,14.3,20,11z"/>
</svg>
