<?xml version="1.0" encoding="UTF-8"?>
<svg preserveAspectRatio="xMidYMid slice" width="68px" height="17px" xmlns="http://www.w3.org/2000/svg" xmlns:xlink="http://www.w3.org/1999/xlink" version="1.1" id="Layer_1" x="0px" y="0px" viewBox="0 0 546.4 142.6" style="enable-background:new 0 0 546.4 142.6;" xml:space="preserve">
<style type="text/css">
	.st0{fill-rule:evenodd;clip-rule:evenodd;fill="currentColor";}
	.st1{fill="currentColor";}
</style>
<g>
	<g>
		<path class="st0" d="M307.4,109.8c-0.1,1-0.3,2.3,0.3,2.9C308,112,307.8,110.4,307.4,109.8z"></path>
		<path class="st0" d="M313.1,122.4c0,0.9,0.3,1.6,0.2,2.6c1.2,0,1.2,1.2,2.5,1.1c0.3-0.6,0.2-2,0-2.6    C314.5,123.2,314.3,122.8,313.1,122.4z"></path>
		<path class="st0" d="M314.1,118.6c0-0.8,0-1.5-0.2-2.1c-1.4-0.2-1.3-2.3-2.8-2.9c-0.1,0.6,0.2,1.5-0.3,1.6    c-0.6-0.6,0.7-2.7-0.6-3.2c-0.3,0.5,0.3,1-0.3,1.1c0-1.5-0.3-2.6-1.4-2.9c-0.9,0.6-0.1,2.9-0.6,3.4c-0.1-0.9-0.4-0.5-0.9-0.3    c-0.3-1.3,0.2-2.3-0.2-3.7c-0.5-0.1-0.3,0.4-0.8,0.3c0-0.5,0-0.9-0.5-0.8c-0.4,0.2,0,1.2-0.6,1.1c-0.1-0.3,0.2-1.1-0.2-1.1    c-0.4,0.1,0.1,1.1-0.5,1c0.2-1.3-0.6-1.3-0.5-2.1c-0.5,0.2-0.9-0.6-0.9,0.2c-0.1,0.7,0.9,0.2,0.8,0.8c-0.5,0.3-0.8-0.1-1.1,0.2    c-0.2,1.3,0.4,2.4-0.3,3.1c-0.1-1.2,0.2-2.9-0.2-3.9c-0.4,0.2-1.3-0.8-1.1-1.5h-0.6c-0.3,0.5-0.2,1.3-0.8,1.1    c-0.2,1,0.5,1.1,0.5,1.9h-0.6c0-1.3,0.1-2.6-0.2-3.7c-0.9-0.3-0.9,0.3-1.4-0.3c-0.3,1.1,0.2,2.5-0.3,3.1c-0.2-0.1-0.4-0.3-0.5-0.5    c-0.1-0.7,0.1-1,0.5-1.3c-0.4-0.2-0.6-0.9-0.3-1.3c-1-0.1-0.7-0.8-1.4-1c-0.6,1.7,0.2,4.5-0.6,5.6c-0.1-2.4,0-4-0.2-6.1    c-0.4-0.1-0.7-0.2-0.8-0.5c0-0.5,0.8-0.2,0.8-0.8c-0.4-0.2-0.9-0.4-1.2-0.6c-0.4,2,0,5.2-0.5,7.1c-0.7-2,0.9-5.9-1.4-6.5    c-0.7,4.2-0.1,8.5-0.3,13.2c0.6,0.2,0.9,0.7,1.5,0.8c0.1-2.8-0.1-4.6,0.2-6.6c0.5,2,0.1,4.5,0.2,7.1c0.6,0.2,0.9,0.6,1.7,0.6    c0-2.6-0.1-5.6,0.2-7.6c1,2.5-1.2,7.7,1.5,8.7c0.7-2.2-0.2-4.2,0.5-6.6c0.8,0.9-0.2,2.2,0.3,3.6c0.6,0.3,1,0.7,1.7,0.8    c0-0.2-0.1-0.6,0.2-0.6c0.1,1.4,1.2,1.6,2.2,2.1c0.8-0.7,0.4-2.2,0-2.9c0.5,0,0.3-0.8,0.8-1c0.2,1.5-0.2,2.9,0.2,4.4    c1.6,0.5,2.4,1.8,4.2,2.1c0.4-0.2-0.1-1.3,0.3-1.5v1.8c1,0.3,1.7,1.5,2.8,1.1c0.6,1.1,1.7,1.6,2.9,1.9c0-0.9,0.1-1.9-0.2-2.6    c-1.7-0.7-3.5-1.4-4.5-2.9c3.2,0.8,4.5,2.4,7.6,3.2C316.4,120,315,116.8,314.1,118.6z"></path>
		<path class="st0" d="M310.7,138.7c-0.3,0.6-0.2,2,0.3,2.3c0.3-0.8,0.3-1.3,0.2-2.3H310.7z"></path>
		<path class="st0" d="M313.9,127.1c0.1-0.7-0.1-1.1-0.6-1.1c-0.1,0.3,0.2,1-0.3,0.8c0.1-0.5-0.3-0.6-0.2-1.1    c-0.6-0.1-1.6-1.4-2-0.3c-0.3-0.2,0-1-0.5-1c-0.2,0.5,0,1.4-0.3,1.8c-0.3-0.6-0.1-1.6-0.3-2.3c-0.7-0.1-1-0.6-1.7-0.8    c0.1,0.8-0.4,0.4-0.8,0.3c0.2,0.5,0.2,1.1,0.2,1.8c0.7,0.5,1,1.5,2,1.8c0.5,0.1,0.2-0.5,0.6-0.5c0.2,0.2,0.2,0.6,0.2,1    c1.1-0.3,1.3,1.3,2.5,1.5c0.4-0.3,0.1-1.4,0.5-1.8c0,0.8,0,1.6,0.2,2.3c0.4,0.4,0.3-0.2,0.8-0.2c0.3,0.6,0.6,1.3,1.5,1.3    c0.5-0.8,0.2-2,0.2-3.2C315.1,127,314.4,126.3,313.9,127.1z"></path>
		<path class="st0" d="M317.8,128.6c-0.1,0.7,0.3,2-0.3,2.3c-0.5-0.7-0.1-1.7,0-2.6c-0.3-0.1-0.5-0.3-0.8-0.5    c-0.5,0.9,0.2,2.2-0.2,3.1c0.3,0.1,0.6,0.2,0.5,0.8c0.5,0.2,0.1-0.5,0.6-0.3c0.2,1.1,1.1,1.3,1.9,1.8    C320.4,131.3,319.6,127.9,317.8,128.6z"></path>
		<path class="st0" d="M316.4,122.8c1.4,0.1,2.1,1.8,3.4,1.5c-0.1-1.2-1.2-1.6-2-2.1c-0.2-0.8-0.5-1.5-1.4-1.5    C316,121.2,316.3,122.2,316.4,122.8z"></path>
		<path class="st0" d="M333.1,122.8c1.5,0.6,3.2,1.9,4.8,1.9C336.3,124.1,334.4,123,333.1,122.8z"></path>
		<path class="st0" d="M320.5,126c-0.4-0.1-0.4,0.2-0.8,0.2c-0.3-1.4-2.5-1.5-3.4-1.8c0.2,0.6,0.1,1.6,0.2,2.4    c1.2,0.5,1.9,1.3,3.1,1.8c0.3-0.4,0-1.4,0.3-1.8c0.3,0.4,0.1,1.4,0.2,2.1c1.5,0.3,1.9,1.7,3.6,1.8c0-0.8,0-1.6,0.2-2.3    C323.1,127.1,321.3,127.2,320.5,126z"></path>
		<path class="st0" d="M318.7,115.8c-1.5,0.1-2-0.9-2.5-1.8c-0.1,1.1,0.2,1.7,0,2.6c0.8-0.6,2,0.9,1.2,1.5c-0.6-0.1-0.7-0.8-1.2-1    c-0.2,2.1,1.5,2.2,1.5,4c1,0.3,2.5,1.5,3.2,2.7c0.3,0.5,0.6,1,0.5,1.6c1.3,0.4,3.9,2.4,4,4.4c1.9,1.2,4.3,1.9,4.5,4.8    c0.4,0,0.6,0,0.8-0.2c1.2,1.4,3.1,2,4,3.7c0.4,0.4-0.1,0.6,0,1.1c1.5-0.5,1.5,1.2,3.1,1.1c-0.3-3.4,0.2-6.8,0-10.2    c-0.7-0.7-2.1-0.7-2.5-1.8c0.9,0.1,1.8,1.1,2.5,1c0.2-0.5,0.2-2.6,0.2-3.3c-0.1-0.1-0.2-0.1-0.4-0.2c-0.1-0.8-1.4-1.2-2.3-1.5    c-1.1-0.5-2.3-0.9-2.9-1.1c1.3,1,3.1,1.4,4.5,2.3c-3.6-1.7-7.7-2.3-11.3-3.9c-1.3-0.6-3.2-1-3.7-2.6c2.6,0.7,4.5,2,6.8,2.4    c-0.7-0.4-1.7-0.6-2.2-1.3c-1.2-0.3-2.4-0.8-3.6-1.3c-1.1-0.5-2.5-1-3.1-1.9c3.3,1.2,6.7,3.2,9.9,4    C326.1,119.3,322.3,117.7,318.7,115.8z"></path>
		<path class="st0" d="M325.6,131c-0.5-0.9-0.7-2-1.7-2.3v2.3c1.4,0.6,2.2,1.8,3.9,2.1C327.8,131.6,326.3,131.8,325.6,131z"></path>
		<path class="st0" d="M304.9,138.6c0.4-0.8-0.2-1.6-0.2-2.1h-0.5C304,137.4,303.8,138.3,304.9,138.6z"></path>
		<path class="st0" d="M293.3,127.9c-0.3,1.3-0.4,2.1-0.2,3.2c1.4-0.2,0.2-1.9,0.8-2.9C293.7,128.2,293.8,127.8,293.3,127.9z"></path>
		<path class="st0" d="M295.2,129.4c-0.2,1.3-0.2,2.5,0,4c1-0.8,0.6-2.7,0.5-4H295.2z"></path>
		<path class="st0" d="M297.5,131.2c-0.8,0.8-0.3,2.9-0.3,3.9c0.7,0.2,0.4-0.6,0.9-0.6C297.3,133.3,298.8,131.8,297.5,131.2z"></path>
		<path class="st0" d="M297.7,127.4h-0.6c0.1,1,0,1.2,0,2.3c0.4,0.2,0.6,0.7,0.8,1.1c-0.2-0.6,0.4-0.5,0.3-1    C297.8,129,297.4,128.6,297.7,127.4z"></path>
		<path class="st0" d="M291.5,126.3c-0.4,0.9-0.2,1.8-0.3,3.2h0.8C291.7,128.2,292.3,127,291.5,126.3z"></path>
		<path class="st0" d="M290.1,127.9c0.1-0.4,0.2-2.3-0.3-2.9C289.7,125.6,289.2,127.8,290.1,127.9z"></path>
		<path class="st0" d="M306.8,134.7c0,1.7-0.3,2.7,0.3,3.9c0.1-0.3,0.1-0.8,0.3-1c0.2,0.2,0.3,0.5,0.8,0.3c-1-1.2-0.3-2.2-0.8-3.7    C307.4,134.6,307,134.5,306.8,134.7z"></path>
		<path class="st0" d="M283.8,122.9c0.1-0.7,0.4-1.9-0.2-2.4C283.5,121,283.1,122.7,283.8,122.9z"></path>
		<path class="st0" d="M286.7,125.8c0.1-1.2,0.4-2.5-0.2-3.4C286.5,123.5,285.9,125.3,286.7,125.8z"></path>
		<path class="st0" d="M299.5,117.9c-0.4-0.4-1-0.7-1.4-1.1c-0.8,1.4-0.3,4,1.2,4C299.7,120.1,299.5,118.9,299.5,117.9z"></path>
		<path class="st0" d="M283.8,109.4c0.3,0.9-0.5,2.1,0.8,2.1c0.1-1.1,0.4-1.2,0.2-2.3C284.3,109.2,283.9,109.2,283.8,109.4z"></path>
		<path class="st0" d="M304.3,134.2c-0.4,0.5,0.1,1,0,1.6c0.5-0.1,0.6,0.2,1.1,0.2c0-0.6,0-1.1-0.2-1.5    C304.6,135,304.8,134.3,304.3,134.2z"></path>
		<path class="st0" d="M306.9,122.4c-0.6-0.3-1.4-1.1-2-0.5c-0.8-0.5-1-1.6-2-1.9c-0.5,1.4-0.4,3.3,0.9,3.6c0.5,0.1,0.2-0.7,0.8-0.5    c0.4,0.9,0.8,1.8,2,1.9c0-0.2,0.3-0.2,0.5-0.3C307.2,123.8,307,123.2,306.9,122.4z"></path>
		<path class="st0" d="M302.6,137c-0.4,0.1-0.3-0.3-0.8-0.2c-0.3,0.5-0.3,1.9,0.3,2.1C303,138.7,302.5,138,302.6,137z"></path>
		<path class="st0" d="M299.5,132.1c0.3-0.2,0.6-0.5,0.8-0.8c-0.3-0.6-0.6-1.1-0.9-1.6C299.4,130.5,299.2,131.6,299.5,132.1z"></path>
		<path class="st0" d="M304.3,138.6c-0.4,1-0.3,2.5,0.8,2.7C305.4,140.3,305.3,138.7,304.3,138.6z"></path>
		<path class="st0" d="M300.3,136.5c-0.3-1.2,0.2-2.9-0.8-3.9C299.4,133.9,298.4,136.4,300.3,136.5z"></path>
		<path class="st0" d="M302.3,130.8h-0.6c-0.2,0.9-0.3,2.6,0.2,3.2c0-0.3,0.1-0.5,0.3-0.6c0.2,0.1,0,0.8,0.5,0.6    C303,133,301.9,132.4,302.3,130.8z"></path>
		<path class="st0" d="M380.3,142.5c-0.6-0.8-1.9-1-2.5-1.8c-0.6-0.1-0.5-0.1-1.1,0c-1.5-1.2-4.2-1.5-5.6-2.6c-0.1,0,0.1-0.4,0-0.5    c-0.4-0.2-0.7,0.3-0.9-0.3c0.2,1.4,1.9,5.2,0,5.2C375.1,142.2,381.9,142.7,380.3,142.5z"></path>
		<path class="st0" d="M300.9,61L300.9,61C300.9,60.9,300.9,60.9,300.9,61z"></path>
		<path class="st0" d="M314.2,116.6c0.8,0.1,1.9,1,1.9,1l0.1,0.1c-0.2-0.7-4.4-7.2-10-15.9h-1.9c2.9,4.1,6.4,9.2,6.5,10.4    C312.3,113.3,313.8,114.4,314.2,116.6z"></path>
		<path class="st0" d="M369.7,142.3c-1.3-1.3-3.9-1.1-4.6-2.9c1.9,0.1,3.1,1,4.5,1.6c0.1-1.1,0.3-2.5,0-3.7c-0.3-0.3-0.5,0.1-1.1,0    c-0.6-0.3-1-1-1.9-1.3c0,0-0.2,0.3-0.5,0.2c-0.3-0.1-0.6-0.7-0.9-0.8c-2-0.8-3.6-1-5.4-1.8c-1.2-0.5-2.5-1.5-3.4-1.6    c-0.5,0-0.9,0.2-1.4,0.2c-1.2-0.2-2.1-1.2-3.2-1.6c-4.4-1.8-9.1-4-13.3-5.3c1.5,0.8,3.2,1.6,4.6,2.3c0.5,0.2,1.3,0.3,1.4,1    c-2.2-0.3-4.4-2.4-6-2.1c0.4,0.6,1.4,0.6,1.7,1.3c1.1-0.2,1.1,0.6,2,0.5c0.4,1.2,2.5,0.6,2.5,2.3c-2.2-0.7-4-1.8-6.2-2.6    c-0.3,3.2,0,7.3-0.2,11.6c0.6,0.4,1.7,0.3,1.9,1.1c-1,0.2-1-0.5-1.7-0.6C338.5,140.4,362.7,142.5,369.7,142.3z"></path>
		<path class="st0" d="M350.1,102h-1.5c9,9,20.2,19.6,26.1,23.3c5.3,4,11.6,8.1,13.1,8.4c11,6.6,13.1,7.7,14.7,8.5    c0.4,0.1,7.6-0.3,8-0.8l-40.2-20.9L350.1,102z"></path>
		<path class="st0" d="M288.1,102.9c0-0.5-0.1-0.8-0.2-1.1h-1.1c0,0.1-0.1,0.3-0.2,0.3c0-0.1,0-0.2,0-0.3h-1.3    c-0.1,1.1,0.1,2.5-0.2,3.4c0-1.6-0.1-2.4-0.1-3.4h-1.2c0,0.2,0,0.5-0.1,0.7c-0.3-0.2-0.7-0.4-1.1-0.7h-5.2c0,0.1-0.1,0.1-0.1,0.2    c0-0.1,0-0.1,0-0.2h-4.5c0,0.8,0,1.7-0.1,2.5c1.3,1.2,2.9,2,4.6,2.7c0.1-1.1-0.2-1.8-0.5-2.4c1-0.1,0-1.8,0.5-2.3    c0.9,0.6,0.3,4.3,0.3,5.2c2.4,1.2,3.7,2.3,5.9,3.4c0.4-0.6,0.1-1.7-0.2-2.3c-0.4-0.2,0.1-0.2,1.5,0.3c0.5-0.8-0.3-2.3,0.3-2.7    c0.1,2.2,0.1,3.5,0,6c0.4,0.3,0.7,0.6,1.4,0.5c-0.6-1.4-0.3-1.7,0-2.9c0.7,0.7-0.1,2.1,0.2,3.4c0.5,0.1,0.7,0.7,1.4,0.6    c0.1-0.2-0.2-0.8,0.2-0.8v1.1c0.5,0.3,1.1,0.9,1.7,0.6c0.1,0.8,0.7,1.1,1.5,1.1c-0.1-5,0.2-8.2-0.2-12.6c-0.3-0.2-0.7-0.5-1.2-0.5    c-0.3,0.9,0.2,2-0.3,2.4c0.1-1.4,0-3.1-1.4-3.4l0,0C288.4,102.2,288.5,102.9,288.1,102.9z"></path>
		<path class="st0" d="M546.3,87.4c0.2-2.1-1.6-2.5-3.1-1.8c0.1,0.8-0.3,4.9-0.2,5.8c-0.9,0-1.6,0.2-2.3,0.3    c-0.5-0.3-1.6-0.4-2.9-0.5v-2.6h-6.6v2.5c-0.2,0-0.3,0-0.5,0v-7.7h-5.6V91c-0.6-0.1-1-0.1-1.3-0.2c-0.1-1.6,0.5-11.4-0.8-12.1    c-1.9,0.5-2.8-0.5-4.8-0.3c-0.2,0-0.1,0.3-0.2,0.5c-0.8-0.2-1.8,0.1-2.9,0c-0.3,0.3-0.7,0.5-0.8,1.1c-1.6,0-2.8-2.9-4.2-2.3    c0,1.6,0,7.8-0.2,8.8h-0.8c-0.6-2.3,0.4-11.1-0.6-12.9c-0.6-0.1-0.9,0.3-1.5,0.2c-0.5,2.4-0.4,9.1-0.8,11.6    c-1.3-0.1-0.3-7.5-0.6-8.6c-1.4-0.9-5.4-4.7-6.8-4.4c-0.3,0.6-0.1,12.1-0.2,12.9c-0.4,0.3-1.2,0-1.2,0.6c-0.5-0.1-0.5-0.7-1.1-0.8    c0-1.8,0.1-13.1-0.5-14.1c-0.7,0-1.6,0.4-1.7-0.6c-0.8,0.1-2.3,0-2.9,0c-0.3,0-0.1,0.6-0.2,0.8c-0.6,0.2-1-0.4-1.4,0    c-0.7,0.5,0.2,11.6-0.6,12c-0.1-2.4-0.9-13.3-1.8-14.8c-0.6,0.2-1.7,0.7-2-0.2c-0.4,0.4-5.2,1-5.7,0.3c-0.7,2-0.2,14.7-0.5,16.9    c-0.5,0.1-0.8-0.4-1.5-0.2v-1c-0.7-0.4-1.1-0.5-1.9-0.6c-0.5-1.1-5.8-46.9-6.9-53c-1.1,6.4-6.3,55.5-7.4,55.8    c0.2-1.2-0.6-21.9-0.6-21.9l-2.9-1.9l-2.7,1.8c0,0-0.5,4.6-0.2,6.1c-1.8-0.2-0.4,0.3-1.8,0c-0.1-1.7-0.1,0,0-1.7    c-1.4-1.3-6.2-0.3-7.3-0.3v17.4c-0.6,0-4.3,0.2-3.7-0.5c0-0.7,0.1-5.1-0.5-5.2c0.2-0.3,0.7-0.2,0.8-0.6V64.7    c-0.6-1.2-2.4-0.8-1.5-1c0.5-0.8,0.3-2.3,0.3-2.3s-4-0.2-5.5-0.3c-0.3,1.1-0.2,1.7-0.3,2.9c-0.4,0.1-1.3-0.3-1.8-0.2    c-0.3,1.3-0.3-4.3-0.2-10.5c-0.8,0-1.7,0.1-2.2-0.3c0.1-2.9-3.5-1.4-4.9-1.9c-0.6,0.2-0.3,1.9-0.3,1.9h-1.7v7.5c0,0-0.9,0-0.9,1    c0,0.7,0.1,1.3,0.2,2c0.3,1.3,0.1,12.5,0.1,13.8c0,0.6,0,1.2,0,1.9c0,0.2,0.1,0.8,0,1c0,0.1-0.3,0.2-0.3,0.3    c0,1.8-0.2,12.2-0.2,11.3c-0.2-0.6,0-4.7-0.2-5c-0.4,0-1.1-0.2-0.9,0.5c-0.4-1.2-0.5-0.1-1.7-0.3V65.7c-0.4-1.4-1.8-0.4-2.8-1.1    v-3.5c-0.8-0.7-1.8-1.2-2.9-1.5c0-0.7,0.1-1.6-0.2-2.1h-0.6c-0.5,0.1,0,1.3-0.2,2.1c-1.4-0.1-1.7,0.9-2.9,1v4.5    c-0.6,0-1.3,0-1.7,0.2v20.4c-0.3,0.1-0.7,0.2-1.1,0.3v-6.9h-3.3v4.1c-0.3-0.2-0.6-0.3-1-0.3c-0.2-1.7-0.3-18.6-0.3-20.5    c-2.5-1.1-5.7-1.1-8,0c0.1,0.9,0.2,16-0.2,17.5c-0.6-0.1-1-0.2-1.4-0.2c0-4.2,0-11.2,0-21.1c0-16.8-2.2-23.7-2.2-23.7h-7.8    c0,0-2.2,10.1-2.2,23.9c0,2.7,0,5.1,0,7.3c-2,0.2-3.9-0.7-4.4-0.6c-0.7,0.9-2.7,0.4-3.7,1v2.3h-6c-0.5,0.4,0.2,1.3-0.9,1.3V83    c-0.6,0-0.8-2.6-0.9-2.4l-0.5,0.8c0-4.7,0-12.1,0-21.9c-0.1-18.6-4.2-48.3-4.2-48.3h-7.3c0,0-4.2,31.8-4.2,47c0,8.7,0,15.2,0,19.9    c-0.3,0.2-0.7,0.3-1,0.4v-3h-4.1v4.2c-0.4,0.2-0.7,0.4-1.1,0.6V42.7h-0.4v0.4l-3.1,0.6l-4.6-0.6l-0.1-0.4h-0.4v41.4    c-0.4-0.1-0.7-0.1-1-0.2c-0.6-1.2-1.2-2.4-1.8-3.5v-0.1h-0.1c-0.6-0.9-1.2-1.8-1.9-2.5c0.4-0.3-5-9.3-11.4-20    c3.2,6.5,6.2,12.6,8.5,17.3h-4.2v0.4c-0.1,0.1-0.1,1.2,0,2.8v10c-0.8,0-0.9-0.1-1,0c0.1-0.2,0-4.1,0-5c0-3.5-0.1-7.7-0.1-9.6    c0-0.9-4-1.1-4-0.6c0,2.9,1,14.9-0.1,14.9c-0.3,0-0.7,0-1.1,0V65.8h-8v22.3c-0.2,0-0.3,0-0.5,0c-0.9,0-0.7-18.7-0.7-25.4    c0-2.4-6.2-0.6-6.3-1.7c0.1,1.7,0.7,24.2,0,24.3c-1.5,0.1-0.7-0.4-2.5-0.2c-0.3-19.4-2.5-49.5-2.7-70.8c-0.1-0.5-0.2-1-0.2-1.3    c0.1-0.1,0.2-0.2,0.2-0.3c0-0.2,0-0.5,0-0.8c0,0,0.1,0.2,0.2,0.4c0-0.1,0.1-0.1,0.2-0.1c0.5-0.1,0.9,0.1,0.8,0.6    c0.8-1.3-0.1-3.5,0.2-5.3c-0.1-0.3-0.3-0.6-0.8-0.5c0.5-2.1-1.8-1.3-2.9-1.8c-0.4,0-0.3,0.5-0.3,1c-3.4,0.1-6.3-0.4-9.1-0.2    c0.1-1.1-0.1-1.8-0.3-2.6c-0.8,0-1.3-0.3-2.2-0.2c-0.4,0.6-0.6,1.4-0.6,2.4c-2.6-0.1-6.7-0.8-8.7,0c-0.2-0.5-0.3-1-0.6-1.3h-2.3    c-1.6,1.3-1.8,4-1.7,6.5c0-0.3,0.1-0.7,0.1-1c-0.4,16.1,2.3,26.8,7.2,38.6c0.3,0.4,0.6,0.7,0.9,1c0.9,0.8,3,2.3,3.3,3.7    c0.3,1.1-0.3,2-1,2.8c0.1,0.3,0.3,0.6,0.4,0.9c0.7,1.6,2.2,4.2,4.1,7.5c0.1-1.4,0.4-2.7,0.9-3.8c1-0.1,8.1,5.9,9.2,7.2    c1.6,1.9-2,4.4-4,6.6c5.5,8.8,12.2,16.6,17.5,25l42.3,0.2c-6.3-6.3-11.5-9.2-13.1-11l14.7,11h3.3l3.4,4c0.8,0.1,2.9,0.2,3.7,0.3    c5.6-4.3,10.5-0.2,16.3-3.6v0.9c7.5-3,14.1,0.5,21.8,0c3.2,0.4,4.1-0.6,7.4-0.6l0.1,1.1c5.5-4,10.1,4,15.8-0.4l-0.4,1.5    c0.9-2.2,3.3,0.7,3.2-2.8h0.2l0.8,1c0.3-0.4,0.6-0.7,0.9-1h4.8c1.8,0.9,3.7,1.9,6,0.3l-0.3,0.9c1.3-0.7,2.7-1.2,3.6-0.3    c-0.2,0.1-0.1,0.4-0.4,0.6c3.8,3.8,8.3-0.2,12.4,0.1l-0.5,1.7c2.1-2,5.7,0,8.3-0.9l-0.2,0.8l1.4-1.1v1.7c3.4,0.2,6.7-1.1,10-1.3    l-0.2,1.5c3.2-2.6,7.8,0.2,11.1-0.9l-0.2,0.5c8.3,0.8,21-1.6,29.3-2.4c-0.1,0.2-0.2,0.6-0.3,0.8c0.4-0.5,0.9-1.4,1.4-1.3    c0.1,0.3-0.2,0.7-0.3,0.8c1.6,2.5,5.2-1.2,6.2,0.8c0.5-0.2,0.8-1.2,0.6-2l25.3,0.1c0,0.2,0,0.4-0.1,0.6c0.3-0.2,0.7-0.4,1-0.5    C545,100.2,546.9,87,546.3,87.4z M289,8.4c0.7,0.1,1.2,0.3,1.7,0.6c0.3-0.3,0.5-0.7,1.2-0.5v2c-1-0.2-1.3-0.1-2,0.3    c-0.5,0.1-0.3-0.5-0.9-0.3C289,10.5,289,8.4,289,8.4z M292.1,19.8c-0.1,6.5-0.3,10.4-0.3,14.7c-0.9-0.2-3.9-2.3-4.6-3.1    c-1.1-1.3-2.2-2-2-4.8c2.2-2.2,3.9-4.8,6.2-6.8H292.1z M283.9,8.3c1.2-0.1,1.9,0.3,3.1,0.2v1.9c-1.1,0-2.2,0.1-3.1-0.2V8.3z     M290.1,16c0.1,2.5-1.8,3.3-3.1,4.8c-1.3,1.4-2.7,4.7-5.3,3.9c-1.3-0.4-2.9-3.1-3.9-4.2c-1.4-1.6-3.8-3.6-2.9-5.3    C279.8,15.5,285.3,15.2,290.1,16z M280.8,8.1c0,0.8,0,1.5,0.2,2.1h-2.9c-0.2-0.6-0.3-1.3-0.3-2.1H280.8z M272.8,8h0.9    c0,0.3,1.3-0.1,2,0c0.2,0.5,0.5,1.5,0.2,2.1c-1.5-0.2-1.6-0.1-3.1-0.2V8z M272.9,19.1c2.6,2.1,4.4,5,6.6,7.4    c0.5,3.7-1.7,4.7-3.4,6.1c0.4,0.6-3,1.8-3.4,2C272,33.9,272.8,19.7,272.9,19.1z M283.6,51.4h-1.1c-0.9,0.9-8.2-8.9-8.7-11.3    c0-0.5,2-4.4,2.4-4.8c0.3-0.3,3.6-5.2,6.8-4.4c1.5,0.4,6.8,5.7,8.2,7C290.7,39.8,285.8,49.6,283.6,51.4z M293.2,64.3    c-1.4-0.4-2.1-1.6-2.9-2.9c-1.9-1.5-3.1-3.8-4.9-5.3c-0.1-1.5,0-1.5,0-3.2c1.4-1.1,6.7-6.9,7.1-6.9c0,0,0,0.1-0.1,0.1    c0.1-0.1,0.3-0.1,0.5-0.1C293.1,52.4,293.2,58,293.2,64.3z M327.7,88.1V76.6c0.7,1.4,1.3,2.7,1.8,3.7h-1.1v7.1    C328.2,87.8,328,88,327.7,88.1z M335.6,87.7c-1.4-1.6-2.8,0.4-2.8-0.1c0.1,0,0.3-1.7,0.5-2.8C333.9,85.6,334.8,86.6,335.6,87.7    c1.1,1.3,2.1,2.4,2.4,2.8C337.1,89.7,336.3,88.7,335.6,87.7z"></path>
		<path class="st0" d="M282.4,67.1c1.7,3.3,3.4,6.4,5.1,9.3c0.1-0.6,0.5-1.3,1.1-2c-2.3-3.7-4.4-7.1-6.1-10    C282.5,65.2,282.4,66.2,282.4,67.1z"></path>
		<path class="st0" d="M282.5,78.2c0.3-3.4-0.1-7.5-0.1-11.1c-1.7-3.3-3.4-6.8-5-10.4c-0.5,0.5-1,1-1.3,1.5    c-1.4,2.1-1.7,4.9-4.5,5.7c1-0.3-0.2-16.5,0.6-18.2c0.4,0.2,0.8,0.5,1.1,0.8c-3-8.2-5.2-16.5-5.9-24.5c0,1.7,0.1,3.4,0.4,5    c-0.7,1-2.1,9.7-2,10.2c0,3-1.3,8.1-1.2,8.6c-0.5,6.2-1.8,10.7-2.3,16.3c-1.2,4.6-2.3,10-2.9,14.4c-1.1,2.6-1.3,5.9-2.5,8.1    c-0.3-4-0.5-28.7-0.6-30.6c-0.1-1.2-0.7-4.2-2.3-2.3c-0.5-0.7-2.2-0.2-3.2-0.3c0.1-0.6-0.1-0.8-0.5-1c-0.5,0-0.7,0.4-0.6,1    c-2,0-3.2,0-4.8-0.5c-0.3,0.3-0.6,0.6-0.6,1c0.1,8.8,0.5,11.2-0.5,16.5c-0.9-0.1-4.5-0.1-5.7-0.3c-1,2.2-0.1,7.3-0.6,10.5    c-0.9,0.1-1.9-0.2-2.3,0c-0.5,2.4,0.1,6.4-0.6,8.9c-2.7-0.1-5.4-0.9-8.1-1.2c-2.4-0.3-7.5,0.9-9.8,0.9c-0.3,0,1.6,15.8,1.5,15.6    c1.7,0.9,4.4,2.7,6.8,1.2l-0.3,0.5c2.7-0.1,6-0.2,7.9-2.6h0.1c0.6,3.8,1.8,3.1,2.9,4.4c1.9-1.7,5.5-1.1,8.3-2.6    c0.3,1.8,2.3-0.7,2.3,1.9c7.9-4.7,17.3-2.6,25.3,1.5l3.8-0.2l-3.3-2.8c0.1,0,0.2,0.1,0.3,0.1c0-0.7,0-1.4,0-2.1h-1.6    c0,0.3,0,0.7,0,1.1l-1.3-1.1h1.3c0-2.1,0.5-3.7,1.9-4.6v-1.3c0.8-0.9,1.7,0.5,2.8,0.6c0.2,0,1.5,0.2,1.7,0.5c0.6,0.8,0,3,0.3,4.8    l0,0c0.3-0.7,0-1.4,0.1-2.4c1.4,0.7,3.4,1.5,5.1,2.4h1.1c0.1-1.5,0.1-3.6,0.1-5.5c0-1.4,0.2,0.2,0.2,0.8v2.1    c0.2,0.4,0.5,0.7,0.9,1c0,0.6,0,1.1,0,1.6h0.3c0-0.7,0.2-1.3,0.5-1.6c0.4,0.3,0.6,0.9,0.7,1.6h0.3c0.2-0.6-0.1-1.8,0.2-2.3    c0.4,0.2,0.3,0.7,0.8,0.8c0.2,0.6-0.7,0.1-0.6,0.5c0.3,0.3,0.6,0.6,0.7,1h0.5l0,0l0,0l15.9,0.1c-2.2-3.1-4-5.6-4-5.6    c-0.4-0.5-6.2-8.5-12.8-19.9v0.1C286.2,77.5,284.5,78.3,282.5,78.2z M237.8,73.3c0-0.1,0-0.2,0.1-0.2c0.6-1.6,1.8-0.5,2.6,0.3    c0.3,0.3-1.3,2.7-2.1,2.3C237.8,75.4,237.7,74,237.8,73.3z M243.1,77.9c-0.8,0.3-1.1,1.1-1.7,1.6c-1.2-0.4-2.5-1.4-2.5-2.6    c0-0.7,1.5-2.5,2.3-2.4c1.1,0.1,0.9,1.6,2,1.8C243,76.6,242.9,77.3,243.1,77.9z M242.8,81.3c-1.7,0-0.6-1.9-0.2-2.4    C243.3,79.4,242.4,80.3,242.8,81.3z M238.3,79.8c0.8,0,0.5,0.6,0.5,1.1c0.1,0.5,0.3-0.2,0.6,0c0.1,0.9-0.3,1.3-0.8,1.6    C238.5,81.7,238.8,80.5,238.3,79.8z M241.9,88.4c0,0.2,1-0.3,1.2,0.2c0.1,0.3,0.1,0.7-0.1,1.1c-1.4-0.3-2.7-0.6-4-0.8    c-0.3-1.6-0.1-3.4-0.2-4.5c0.9,0.3,0.3,2.7,0.9,3.7c0.4-0.2,0.6-0.5,0.6-1c0.3,0.1,0.8,0.1,0.9,0.5c0.3-0.2,0.7-0.8,0.3-1.3    c-0.4,0-0.5,0.3-0.9,0.2c-0.6-2.1-1.3-4.7,0.6-5.3c0.7,0,0.5,1,1.4,0.8c-0.3,1.7-0.3,2.7-0.5,4c0.1,0.6,1.1,0.1,1.2,0.6    c-0.3,0.3-0.7,1-1.2,0.6C242,87.3,242.3,88.2,241.9,88.4z M243.1,75.3c-1.9-0.5-1.1-3.6,0.6-3.2C242.9,72.8,243.6,73.9,243.1,75.3    z M241.3,72.9c-0.9,0.1-1.6-1.2-2-2.3c1.5-0.3,2.8,0.3,4.5-0.2C242.7,70.8,242.3,72.8,241.3,72.9z M253,68.3    c0.5,1.1-0.1,3.6-0.3,5C250.1,72.4,251.3,69.4,253,68.3z M249.6,69.8c-1-0.2-1.8-2.1-2.8-3.1c-0.4-0.4-1-0.3-1.2-1.1    c1.9-0.7,2.3-4.2,4.3-4.2c0.6,0,3.5,2.9,3.7,3.7c0.4,1.7-1,2.3-2,3.4C251,69.2,251,70,249.6,69.8z M253.8,67.5h0.3    c0.4,1.3,0.2,5,0.3,7.6C251.8,74.2,254,70.3,253.8,67.5z M253.8,63.7c-0.7-1-2.4-1.7-2.6-2.9c-0.3-1.9,1.5-2.8,2.8-3.9    C254.7,58.7,253.9,61.7,253.8,63.7z M252.7,52.2h1.2V53c-0.3,0.3-0.9,0.1-1.2,0V52.2z M250.5,52.2h1.4V53h-1.4V52.2z M253.2,55.1    c-0.1,1.2-1.9,3.9-3.4,3.7c-1.3-0.1-2.5-2.3-2.9-3.7H253.2z M248.1,52c0.6-0.1,0.8,0.2,1.4,0.2V53h-1.4V52z M245.9,52h1.5v1    c-0.7,0-0.7-0.2-1.4,0C245.9,52.8,245.9,52.4,245.9,52z M245.5,60.5c0-0.1,0.1-0.6,0.1-1.2c0.1-1.1,0.3-2.5,0.2-2.6    c1.3,0.9,3.2,2.1,2.9,3.9c-0.2,1.3-2,1.9-2.6,3.1C245.3,63.2,245.5,61.4,245.5,60.5z M247.2,90.7c-0.3-1.1-1.4-1.5-1.4-3    c0.9-0.6,2.1-1.3,1.7-2.7h0.9c0-0.4,0-0.8-0.2-1c-1,0.2-1.4,1-1.7,1.9c-0.6-0.1-0.9,0.2-1.4,0.2c-0.1-0.6,0.3-0.7,0.8-0.6    c0.2-2.7-1.1-4.8-0.5-6.9c1.3,1.2,4,2.5,3.1,5c0,0.2,1,5.2,1.6,7.9C249.1,91.2,248.1,90.9,247.2,90.7z M248.4,80    c-0.4,0-1-0.6-0.5-0.5c-0.8-0.9-2-1.5-1.7-3.6c0.7-0.2,0.8-1,0.6-1.8c-0.8-0.2-0.8,1.1-1.4,0.6c0.2-2.6,0-5.5,0.3-7.9h0.7    c0.1,0.6-0.1,0.9-0.3,1.1c0.1,0.5,0.4-0.2,0.8,0c1.6,1.5,3.1,4.1,0.2,5.3c0.1,0.6,0.5,0.7,0.2,1.3c1.4-0.5,1.6-2.5,3.1-2.3    c1.1,0.2,1.3,1.9,2.3,2.6c-0.2,2.6-0.6,4.9-2,6.1C249.2,81.3,248.9,80.6,248.4,80z M252.9,75.6c1.5,0.3,0.9,2.7-0.3,2.7    C252.6,77.4,252.7,76.5,252.9,75.6z M264.3,97.5l-0.2-0.1C264.2,97.4,264.2,97.4,264.3,97.5L264.3,97.5z M265.5,96.4    c0.4,0.1,0.7,0.9,0.3,1.3c-1.1,0.1-1.4-1.2-2.1-0.7l-2.6-2.1c-2.6-0.9-5.2-1.7-7.6-2.5c0.5-0.5,1.1-0.8,1.4-1.5    c3.4,0.4,5.5,1.6,9.1,1.9c0.1,0.1,0.2,0.3,0.2,0.5c0.4-0.6,1.1,0.1,1.7,0.3c0.1,0.4-0.1,0.6-0.5,0.5    C265.9,94.8,266.3,95.8,265.5,96.4z M264.3,90.8c-0.6-0.1-0.9-0.6-0.9-1.3c0.3,0.1,0.5,0,0.5-0.3c0.3,0,0.2,0.4,0.6,0.3    C264.6,90.3,264,90.2,264.3,90.8z M266,92.7c-0.6-0.5-1.6-0.6-1.4-1.9c0.8-0.1,1.1,0.4,1.5,0.6C266.3,92,265.9,92.1,266,92.7z     M266.6,48.8c0.6,11.4-0.5,24.5-0.5,36.2c-0.6-0.1-0.8,0.2-0.8,0.8c-0.6,0-1.7-0.5-1.9,0.3c-0.5,0.1-0.2-0.7-0.8-0.5    c-0.5,0.3-0.1,0.7-0.2,1.3c0.4,0,1.5-0.8,1.7,0.5c-0.2,0.3-0.5,0.4-0.9,0.5c0.3,0.7,0.6,0.7,0,1.3c-1.1-0.4-0.8-2-1.7-2.3    c-0.1-0.3-0.5,0.4-1.1,0.2c-0.1-0.3-0.4-0.4-0.3-1c-1,0.5-2.1,1-3.2,0.8c-0.3-0.1,0.5-0.9,0-1.3c-0.5-0.1-0.5,0.7-1,0.2    c-0.1,0.5,0.5,0.4,0.3,1h-0.8c-0.1,0.5,0.4,0.3,0.5,0.6c0.1,0.3-0.2,0.3-0.5,0.3c-0.2,1.6-1,3.8-2.3,4.6c-0.1,0-0.3-0.1-0.4-0.1    c0.1-3-0.3-13,1.7-13.5c0.1,1.7,0,3.5,0.3,5.5c0.9,0.6,1.7,0.6,2.5,1.1c0.9-1.6,1.2-3.9,1.9-5.8c0.5,0.1,0.5,0.8,0.5,1.4    c0.6,0.9,0.4,2.8,1.4,3.4c0-1.6-1.4-4-1.2-5.8c0-0.4-0.4-0.2-0.5-0.5c3.4-13.5,5.7-27.6,7.7-42.3c0.2,2.9,0.4,9.3-0.2,11.9    C266.9,48.1,267.4,48.9,266.6,48.8z M278.2,60.9c0.2,0,0.3,0,0.3,0.2c-0.3,4.5,0.5,10.1-0.5,13.9c-1.9-1.5-3.2-3.6-4.8-5.3    C272.6,65.1,277.3,61.1,278.2,60.9z M274.9,81.2c-1.2,0-2.7,1.1-3.8,1.5c0-3,0-7.2,0.3-10.3h0.3c2.2,1.5,5.6,5.3,7.1,7.6    C277.8,80.6,276,80.3,274.9,81.2z M283.3,101.6c-0.8-0.4-1.9-0.6-2.3-1.5c-1.2,0.3-2.3-1.1-3.6-1.3c-0.1-0.7,0.1-1.2,0.2-1.8    c0.6,0.1,0.6,0.8,0.9,1.1c0.5-0.1,0-0.4,0.3-0.6c0.3,0,0.3,0.2,0.6,0.2c0.3,0.2,0.1,0.9,0.3,1.1c0.3,0,0.3-0.4,0.3-0.8    c0.1,0.1,0.3,0.2,0.6,0.2c0.1,0.3-0.1,0.9,0.3,1.3c0.3,0,0.3-0.4,0.3-0.8c0.4-0.1,0.4,0.2,0.8,0.2c0,0.4-0.1,0.9,0.2,1.1    c0.3,0,0.3-0.4,0.3-0.8c0.4,0.1,0.6,0.2,0.9,0.3C283.4,100.2,283.6,101.2,283.3,101.6z M285.6,99.3c0.4,0,0.6,0.2,0.6,0.6    C285.8,100.1,285.5,99.8,285.6,99.3z"></path>
		<path class="st0" d="M292.4,46C292.2,46.1,292.2,46.2,292.4,46L292.4,46z"></path>
		<path class="st0" d="M295.8,14.3c0.7,2.8,2.9,7.4,3,7.9c1.4,4.6,11.4,21.6,19.7,35.6c-9.5-19.2-20.9-42.3-22.6-45.5    c-0.1,0.1-0.1,0.2-0.2,0.4C295.7,13.2,295.8,13.8,295.8,14.3z"></path>
		<path class="st0" d="M277.4,56.7c0.2-0.2,0.4-0.5,0.6-0.7c-1.2-2.6-2.2-5.1-3.2-7.5c-0.5-0.7-1-1.4-1.6-2.1    C274.5,49.9,275.9,53.4,277.4,56.7z"></path>
		<path class="st0" d="M267.5,11c-0.5,3.5-0.5,7.2-0.2,11c0-2.6,0.2-5.1,0.3-7.7C267.6,13.4,267.5,12.2,267.5,11z"></path>
		<path class="st0" d="M272.3,98.9c0,0.8-0.1,1.8-0.1,2.9h0.5c-0.1-1.5-0.3-2.9-0.2-4.2C271.6,97.6,272.3,98.4,272.3,98.9z"></path>
		<path class="st0" d="M329.8,136.6c-0.1-1.1-0.3-2-1.4-1.9c-0.4,1.7-0.5,5.3,1.7,4.2c0,0.5,0.1,0.8,0.5,1c0.2-1,0.2-2.2,1.4-2.3    C331.7,136.7,330.5,136.1,329.8,136.6z"></path>
		<path class="st0" d="M333.1,139.9c-0.9,0.9,0.6,2.5,1.4,2.3c0.4-0.4-0.6-1.7,0.5-1.6c-0.3-1.4-1.3-2.2-2.5-2.7    c-0.2,0.3-0.4,0.5-0.3,1.1C332.6,139.1,333,139.3,333.1,139.9z"></path>
		<path class="st0" d="M325.5,133.6c-0.2-0.7-0.6-1.2-1.4-1.3c-0.4,1.1,0.2,2.3,0,3.7c0.6,0.3,0.8,0.6,1.4,0.2    c0.2,1.1,1.2,1.4,2.2,1.8C328.2,135.8,327.7,132.7,325.5,133.6z"></path>
		<path class="st0" d="M323.6,131.8c-1.2-0.6-2.3-1.2-3.4-1.8c-0.3,0.6-0.3,2.9,0.2,3.7c0.5,0.2,0.4,0,1.1,0c0.1,1.2,1.3,1.2,2,1.8    C323.8,134.6,323.5,133,323.6,131.8z"></path>
	</g>
	<g>
		<g>
			<g>
				<g>
					<g>
						<g>
							<polygon class="st1" points="417,83 417,83 416.8,82.9        "></polygon>
							<path class="st1" d="M416.2,82.5L416.2,82.5l0.6,0.3C416.6,82.6,416.3,82.6,416.2,82.5z"></path>
							<path class="st1" d="M416,82.4c-0.2-0.2-0.3-0.2-0.3-0.2C415.8,82.2,416,82.5,416,82.4z"></path>
							<path class="st1" d="M398.6,73.3C398.6,73.3,398.6,73.4,398.6,73.3L398.6,73.3z"></path>
							<path class="st1" d="M393.5,72.3L393.5,72.3c0.9,0.2,1.9,0.4,2.9,0.6h-0.1c1.2,0.4,2.4,0.6,3.6,1c0.6,0.2,1.2,0.4,1.8,0.6         s1.2,0.4,1.8,0.7h-0.1c0.1,0,0.3,0.1,0.4,0.1c0,0,0,0-0.1,0c0.5,0.3,1.5,0.6,1.8,0.8c0.1,0.1,0.2,0.1,0.1,0         c0.9,0.4,1.8,0.9,2.8,1.4l1.4,0.7c0.4,0.3,0.9,0.5,1.3,0.8c0.1,0.1,0.1,0.1,0,0.1c0.8,0.4,1.5,0.9,2.3,1.4         c0.7,0.5,1.5,1.1,2.2,1.6c0.1,0-0.1-0.1,0-0.1c-0.4-0.4-0.9-0.6-1.3-0.9h0.1c-0.3-0.2-0.1,0-0.4-0.2c-0.1-0.1,0.1,0,0-0.1         c-0.6-0.5-1.4-0.9-2-1.3c-0.1-0.2-0.7-0.5-1-0.7c-0.2-0.1-0.4-0.2-0.5-0.2c-0.6-0.4-1.2-0.7-1.8-1.1c-0.6-0.3-1.3-0.7-1.9-1         c-1.3-0.7-2.6-1.2-3.9-1.8c-0.7-0.2-1.4-0.4-2.1-0.7c-0.7-0.3-1.5-0.6-2.3-0.8l0,0c-0.5-0.1-1.3-0.3-1.8-0.5l-0.5-0.1         c-3.6-1-7.5-1.3-11.3-1.3c-4.3,0-8.1,0.5-12.2,1.5c0,0,0,0,0.1,0c-1.2,0.3-2.3,0.5-3.4,0.7l0,0c-1.4,0.4-2.8,0.6-4.2,1.2         c-1.4,0.5-2.7,1.1-3.9,1.8c-1.5,0.7-3.1,1.5-4.8,2.2c-1.7,0.7-3.4,1.2-5.2,1.2l0,0c-2.8,0-5.5-0.5-8.3-1.1         c-2.8-0.8-5.7-1.7-8.5-2.7c-1.7-0.7-4-1.2-5.6-1.7c-1.7-0.6-3.4-0.8-5.1-1c-1.7-0.1-3.4-0.2-5.2-0.2c-3.2-0.2-6.4,0-9.5-0.1         c-1.5,0.1-3.1,0-4.7,0.1h0.1c-0.6-0.1-1.3,0.2-1.7,0.1h0.1c-0.3,0-0.7,0.2-0.9,0.2l0,0c-0.4,0.1,0,0-0.3,0         c-0.1,0,0,0.1-0.3,0.1c-0.1-0.1-0.9,0.2-1,0c0.2,0-0.3,0,0.1-0.1c-0.1,0-0.8,0.1-0.7,0.2c0,0.1-0.3,0.2,0.1,0.2l0.1-0.1         c0.1,0,0.1,0,0.2,0c0.5-0.1,0.6,0,0.9,0l0,0c0.2-0.1,0.6-0.1,0.8-0.1h0.1c0.1,0,0.6-0.2,0.4-0.1c1-0.1,2.2-0.2,3.3-0.3         c0.2-0.1,0.9,0,0.6-0.1c0.3,0.1,1.1,0.1,1.5,0c0,0,0,0-0.1,0c0.6,0.1,0.7-0.1,1.3,0c0.1-0.1,1,0,1.4-0.1c0.1,0,0.1,0,0.1,0.1         c1,0,2.2,0,3,0c0.7-0.1,1.8,0,2.4-0.1c0.5,0,1.4,0.1,2.1,0.1h-0.1c0.8,0,1.9,0,2.5,0c0.2,0.1,0.6,0.1,1,0.2         c0.6,0,1.7,0.1,2.5,0.1c0.1,0.1,0.7,0,0.7,0.1c2.4,0,5.2,0.9,7.6,1.8l0,0c0.3,0.1,0.7,0.1,1.1,0.1l0,0         c0.4,0.1,0.8,0.3,1.3,0.5c0,0,0,0-0.1,0c0.4,0.1,0.8,0.4,1.3,0.5l0,0l0.3,0.1c0,0,0,0.1-0.2,0c3.8,1.4,7.8,2.6,11.9,3.1h-0.2         c0.3,0,0.5,0,0.8,0c0,0,0,0-0.1,0c1,0.1,2.1,0.1,3.1,0.1c0,0-0.2,0,0,0.1c0.7-0.1,1.2,0,1.6-0.2c0,0,0.1,0,0,0.1         c2-0.4,4-1.2,5.9-2c1.5-0.8,3.2-1.6,4.8-2.4l0,0c1-0.5,2.1-0.9,3.3-1.2c1.2-0.3,2.3-0.5,3.5-0.8c1-0.2,1.6-0.4,2.6-0.6l0,0         c1.6-0.4,3.5-0.5,5.2-0.9l-0.1,0.1c0.3-0.1,1.1-0.1,0.9-0.2h0.3c1.2-0.3,2.2-0.2,3.6-0.3h-0.1c0.4,0,0.8-0.1,1.1-0.1         c0,0,0,0-0.1,0c1.2,0.1,2.6-0.1,3.8,0h-0.1c0.6,0,1.7,0.1,2.6,0.1h-0.1h0.4l0,0C391.5,72.1,392.5,72.1,393.5,72.3z"></path>
							<path class="st1" d="M403.7,75.3L403.7,75.3L403.7,75.3z"></path>
							<path class="st1" d="M301.1,74H301C301,74.1,301.1,74,301.1,74z"></path>
						</g>
					</g>
				</g>
			</g>
		</g>
		<g>
			<g>
				<g>
					<g>
						<g>
							<path class="st1" d="M267.6,74.1L267.6,74.1L267.6,74.1z"></path>
							<path class="st1" d="M267.5,74.2L267.5,74.2L267.5,74.2C267.5,74,267.5,74.2,267.5,74.2z"></path>
							<path class="st1" d="M267.5,74.1C267.5,74.1,267.5,74.2,267.5,74.1C267.5,74.1,267.5,74.2,267.5,74.1z"></path>
							<path class="st1" d="M265.9,74.2L265.9,74.2L265.9,74.2z"></path>
							<path class="st1" d="M265.5,74.4L265.5,74.4c0.1,0,0.2,0,0.2,0l0,0c0.2,0,0.4-0.1,0.6-0.1l0,0l0,0l0,0c0,0.1,0.1,0,0.2,0         c0,0,0,0,0-0.1c0.2,0,0.3,0,0.5-0.1c0,0,0,0,0,0.1c0.1-0.1,0.3-0.1,0.4-0.1c0,0,0,0,0-0.1c0,0-0.1,0.1-0.1,0l0,0         c0,0,0,0.1,0,0l0,0c-0.1,0-0.1,0-0.2,0.1c0-0.1-0.1,0-0.1-0.1c0,0,0,0,0,0.1c-0.2,0-0.4,0-0.7,0c-0.1,0.1-0.2,0-0.4,0l0,0         h-0.1v0.1c-0.3-0.1-0.6,0-0.9-0.1c-0.3,0-0.6-0.1-1,0.1l0,0c-0.1,0-0.2,0-0.3,0l0,0c-0.2,0.1-0.5,0-0.7,0.1         c-0.3,0-0.6,0-0.8,0l0,0c-0.2,0.1-0.4-0.1-0.7,0c-0.2-0.1-0.5,0.1-0.7,0.1c-0.1-0.1-0.3,0.1-0.5,0c-0.3-0.2-0.5-0.1-0.8,0.1         c-0.3-0.1-0.5,0.1-0.7,0c-0.1,0.1-0.2-0.1-0.4-0.1l0,0c0-0.1-0.1,0.1-0.1,0l0,0c0-0.1-0.1,0.2-0.1,0.1l0,0c0,0,0,0,0-0.1         c0,0,0,0.1,0,0s-0.1,0-0.1-0.1v-0.1c0,0-0.1,0-0.1,0.1s0,0.1,0,0.2v-0.1c0,0.1,0,0,0,0.1c0,0,0,0.1,0.1,0.1l0,0         c0-0.1,0,0,0.1,0l0,0c0,0.1,0-0.1,0,0c0.1,0,0.2,0,0.3,0c0,0,0.1,0,0-0.1c0,0.1,0.1,0.1,0.1,0.1l0,0c0,0.1,0.1-0.1,0.1,0         c0-0.1,0.1,0,0.1-0.1c0,0,0,0,0,0.1c0.1,0,0.2,0,0.2,0c0.1-0.1,0.1,0,0.2-0.1c0,0,0.1,0.1,0.2,0l0,0c0.1,0,0.1,0,0.2-0.1         c0,0.1,0,0.1,0.1,0.1c0-0.1,0.1,0,0.2-0.1c0,0.1,0.1,0,0.1,0.1c0.2-0.1,0.4-0.1,0.6,0l0,0c0,0,0.1-0.1,0.1-0.2l0,0         c0,0,0.1,0.1,0.1,0l0,0c0,0,0.1,0.1,0.1,0l0,0l0,0v0.1c0.3,0,0.6-0.1,1-0.1l0,0h0.1l0,0c0.1,0,0.2,0,0.2,0s0,0,0,0.1         c0.1-0.1,0.1,0.1,0.1-0.1l0,0c0.2,0,0.3,0,0.5,0c0.1-0.1,0.3,0,0.4-0.1l0,0c0.2-0.1,0.4,0,0.6,0c0.1,0,0.1,0,0.2,0l0,0         c0.1-0.1,0.3,0.1,0.4,0l0,0c0-0.1,0.1,0,0.1-0.1l0,0c0.1-0.2,0.2,0.1,0.3,0l0,0h0.1l0,0c0.1,0.1,0.2,0,0.3,0v0.1         c0-0.1,0.1,0,0.2,0l0,0l0,0l0,0C265.4,74.4,265.5,74.4,265.5,74.4z"></path>
							<path class="st1" d="M266.4,74.3L266.4,74.3L266.4,74.3z"></path>
							<path class="st1" d="M258.1,74.6L258.1,74.6L258.1,74.6z"></path>
						</g>
					</g>
				</g>
			</g>
		</g>
	</g>
</g>
<g>
	<path class="st1" d="M19.7,65.7c-6.2,0-14.3-3-19.7-8.6l5.2-4.7c3.6,3.3,9.1,6.5,14.4,6.5c7.6,0,12.9-4.5,12.9-11.3   C32.6,32.7,1.8,35.2,1.8,15.9C1.8,5.4,10.7,0,21,0c7.9,0,13.7,3.3,17.9,8.2l-5.2,4.7C30.3,9.2,26.5,6.7,21,6.7   c-6.6,0-11.5,3.7-11.5,8.8c0,13.7,30.8,12,30.8,32C40.3,57.7,32.4,65.7,19.7,65.7z"></path>
	<path class="st1" d="M64.1,65.4c-13.6,0-20.3-10.8-20.3-25.6s6.7-25.7,20.3-25.7S84.4,25,84.4,39.8C84.5,54.7,77.7,65.4,64.1,65.4z    M64.1,19.2c-9.3,0-14.2,8.6-14.2,20.6c0,11.9,4.9,20.6,14.2,20.6c9.3,0,14.3-8.6,14.3-20.5C78.4,27.9,73.4,19.2,64.1,19.2z"></path>
	<path class="st1" d="M155.7,64.7V22.8c0-13-4.2-16.3-11.9-16.3c-3.9,0-8.1,2.1-10.9,5.3c-2.2,2.5-3.4,5.7-3.4,8.9v44.1H122v-42   c0-13-4.2-16.3-11.9-16.3c-3.9,0-8.1,2.1-10.9,5.3c-2.2,2.5-3.4,5.7-3.4,8.9v44.1h-7.5V1h7.5v5.9c2.4-2.8,7.4-6.9,15.1-6.9   c7.5,0,13.5,2.2,16.3,8.7c3.9-5.3,10.3-8.7,17.3-8.7C155.6,0,163,4.6,163,20.5v44.3h-7.3L155.7,64.7L155.7,64.7z"></path>
	<path class="st1" d="M200,64.6v-5.1c-3.3,3.8-7.5,6-12.9,6c-13.6,0-20-10.8-20-25.7c0-14.8,6.3-25.7,19.9-25.7   c6.1,0,10.2,2.4,13,5.4v-4.6h5.8v49.7C205.8,64.6,200,64.6,200,64.6z M200,35c0-8.4-3.9-15.8-12.9-15.8c-9.3,0-14,8.6-14,20.6   c0,11.9,4.6,20.5,14,20.6c7.3,0.1,12.9-6.8,12.9-16.1V35z"></path>
	<g>
		<path class="st1" d="M16.6,107.9c-9.3,0-13.9-7.4-13.9-17.6s4.6-17.6,13.9-17.6c4.8,0,8.4,2,10.7,5.3l-3.4,1.9    c-1.6-2.4-4.2-3.8-7.3-3.8c-6.4,0-9.8,5.9-9.8,14.1s3.4,14.1,9.8,14.1c3.3,0,5.7-1.6,7.4-4.1l3.4,2.1    C25.2,105.8,21.6,107.9,16.6,107.9z"></path>
		<path class="st1" d="M38.1,90.8c0.1,8.1,3.5,13.5,9.4,13.5c3.4,0,5.7-1.4,7.3-4l3.5,1.9c-2.1,3.5-5.6,5.5-10.9,5.5    c-9.2,0-13.6-6.9-13.6-17.6s4-17.5,13.2-17.5c9.7,0,13,7.2,13,18.2H38.1z M47,76.1c-5.5,0-8.2,4.4-8.8,11.2h17.6    C55.3,80.6,52.9,76.1,47,76.1z"></path>
		<path class="st1" d="M69,107.3V73.2h4v30.6h13.5v3.5C86.5,107.3,69,107.3,69,107.3z"></path>
		<path class="st1" d="M93.2,107.3V73.2h4v30.6h13.5v3.5C110.7,107.3,93.2,107.3,93.2,107.3z"></path>
		<path class="st1" d="M138.1,107.3v-3.5c-2.2,2.6-5.1,4.1-8.9,4.1c-9.3,0-13.7-7.4-13.7-17.6s4.3-17.6,13.7-17.6    c4.2,0,7,1.6,8.9,3.7v-3.1h4v34.1L138.1,107.3L138.1,107.3z M138.1,86.9c0-5.8-2.7-10.8-8.9-10.8c-6.4,0-9.6,5.9-9.6,14.1    s3.1,14.1,9.6,14.1c5,0,8.9-4.7,8.9-11V86.9z"></path>
		<path class="st1" d="M172.1,107.9l-11.1-16h-3.5v15.4h-4V73.2h8.5c8.8,0,10.8,5.6,10.8,9.2c0,3-1.4,7.8-7.3,9.1l9.8,13.9    L172.1,107.9z M162.1,76.7h-4.5v11.7h4.5c5.1,0,6.6-3.2,6.6-6C168.7,79.6,167.2,76.7,162.1,76.7z"></path>
		<path class="st1" d="M193.9,107.9c-3.3,0-7.6-1.6-10.5-4.6l2.8-2.5c2,1.7,4.9,3.5,7.7,3.5c4.1,0,6.9-2.4,6.9-6    c0-8.1-16.5-6.7-16.5-17.1c0-5.6,4.8-8.5,10.3-8.5c4.2,0,7.3,1.7,9.6,4.4l-2.8,2.5c-1.8-2-3.8-3.4-6.8-3.4c-3.5,0-6.1,2-6.1,4.7    c0,7.4,16.5,6.5,16.5,17.2C204.9,103.6,200.7,107.9,193.9,107.9z"></path>
	</g>
</g>
</svg>
