<?xml version="1.0" encoding="UTF-8"?>
<svg preserveAspectRatio="xMidYMid slice" width="68px" height="21px" xmlns="http://www.w3.org/2000/svg" xmlns:xlink="http://www.w3.org/1999/xlink" version="1.1" id="Layer_1" x="0px" y="0px" viewBox="0 0 336.1 105.15" style="enable-background:new 0 0 336.1 105.15;" xml:space="preserve">
<style type="text/css">
	.st0{display:none;}
	.st1{display:inline;fill:#006754;}
	.st2{fill:#999999;}
	.st3{fill:#FFFFFF;}
</style>
<g id="Layer_2" class="st0">
	<rect x="-0.51" y="-1.29" class="st1" width="336.9" height="107.74"></rect>
	<rect x="412.58" y="113.59" class="st1" width="336.9" height="107.74"></rect>
</g>
<g>
	<path class="st2" d="M11.38,78.77h-4.9V27.79h4.9v5.83h0.22c1.39-2.21,3.25-3.88,5.58-5c2.33-1.13,4.69-1.69,7.09-1.69   c2.64,0,5.03,0.46,7.16,1.37c2.14,0.91,3.96,2.16,5.47,3.74c1.51,1.58,2.69,3.46,3.53,5.62c0.84,2.16,1.26,4.49,1.26,6.98   c0,2.5-0.42,4.82-1.26,6.98c-0.84,2.16-2.02,4.03-3.53,5.62c-1.51,1.58-3.34,2.83-5.47,3.74c-2.14,0.91-4.52,1.37-7.16,1.37   c-2.4,0-4.76-0.57-7.09-1.69c-2.33-1.13-4.19-2.75-5.58-4.86h-0.22V78.77z M36.5,44.64c0-1.87-0.29-3.64-0.86-5.29   c-0.58-1.66-1.4-3.1-2.48-4.32c-1.08-1.22-2.41-2.2-4-2.92s-3.38-1.08-5.4-1.08c-1.87,0-3.6,0.35-5.18,1.04   c-1.58,0.7-2.95,1.66-4.1,2.88c-1.15,1.22-2.05,2.66-2.7,4.32s-0.97,3.44-0.97,5.36s0.32,3.71,0.97,5.36   c0.65,1.66,1.55,3.08,2.7,4.28c1.15,1.2,2.52,2.15,4.1,2.84c1.58,0.7,3.31,1.04,5.18,1.04c2.02,0,3.82-0.35,5.4-1.04   c1.58-0.69,2.92-1.66,4-2.88c1.08-1.22,1.91-2.66,2.48-4.32C36.22,48.28,36.5,46.51,36.5,44.64z"></path>
	<path class="st2" d="M52.13,31.68c-0.05-1.44-0.12-2.74-0.22-3.89h4.68c0.1,0.91,0.17,1.92,0.22,3.02c0.05,1.1,0.07,2.02,0.07,2.74   h0.14c0.96-1.97,2.4-3.56,4.32-4.79c1.92-1.22,4.08-1.84,6.48-1.84c0.62,0,1.19,0.02,1.69,0.07c0.5,0.05,1.02,0.14,1.55,0.29   l-0.65,4.68c-0.29-0.1-0.77-0.19-1.44-0.29c-0.67-0.1-1.34-0.14-2.02-0.14c-1.3,0-2.54,0.24-3.74,0.72   c-1.2,0.48-2.24,1.23-3.13,2.26c-0.89,1.03-1.61,2.35-2.16,3.95c-0.55,1.6-0.83,3.53-0.83,5.78v17.24h-4.9V35.21   C52.2,34.3,52.17,33.12,52.13,31.68z"></path>
	<path class="st2" d="M110.3,44.64c0,2.54-0.44,4.9-1.33,7.06c-0.89,2.16-2.12,4.03-3.71,5.62s-3.48,2.82-5.69,3.71   c-2.21,0.89-4.63,1.33-7.27,1.33c-2.59,0-4.99-0.44-7.2-1.33c-2.21-0.89-4.1-2.12-5.69-3.71s-2.82-3.46-3.71-5.62   c-0.89-2.16-1.33-4.51-1.33-7.06s0.44-4.9,1.33-7.06c0.89-2.16,2.12-4.03,3.71-5.62s3.48-2.82,5.69-3.71   c2.21-0.89,4.61-1.33,7.2-1.33c2.64,0,5.06,0.44,7.27,1.33c2.21,0.89,4.1,2.12,5.69,3.71s2.82,3.46,3.71,5.62   C109.86,39.74,110.3,42.1,110.3,44.64z M105.12,44.64c0-1.87-0.3-3.64-0.9-5.29c-0.6-1.66-1.45-3.1-2.56-4.32   c-1.1-1.22-2.45-2.2-4.03-2.92s-3.36-1.08-5.33-1.08c-1.97,0-3.73,0.36-5.29,1.08c-1.56,0.72-2.89,1.69-4,2.92   c-1.1,1.22-1.96,2.66-2.56,4.32c-0.6,1.66-0.9,3.42-0.9,5.29s0.3,3.64,0.9,5.29c0.6,1.66,1.45,3.1,2.56,4.32   c1.1,1.22,2.44,2.19,4,2.88c1.56,0.7,3.32,1.04,5.29,1.04c1.97,0,3.74-0.35,5.33-1.04c1.58-0.69,2.93-1.66,4.03-2.88   c1.1-1.22,1.96-2.66,2.56-4.32C104.82,48.28,105.12,46.51,105.12,44.64z"></path>
	<path class="st3" d="M165.81,61.49l0.29-36.07h-0.22l-13.25,36.07H144l-12.89-36.07h-0.22l0.29,36.07h-11.59V10.51h17.52   l11.61,32.69H149l11.1-32.69h17.81v50.98H165.81z"></path>
	<path class="st3" d="M222.91,61.49l-3.96-10.01h-19.73l-3.74,10.01h-13.39l21.38-50.98h11.95l21.17,50.98H222.91z M209.23,24.12   l-6.48,17.5h12.82L209.23,24.12z"></path>
	<path class="st3" d="M268.13,61.49l-11.07-20.23h-4.2v20.23h-12.02V10.51h19.44c2.45,0,4.84,0.25,7.16,0.76   c2.33,0.5,4.42,1.36,6.26,2.56c1.85,1.2,3.32,2.78,4.43,4.75c1.1,1.97,1.66,4.42,1.66,7.34c0,3.46-0.94,6.36-2.81,8.71   c-1.87,2.35-4.46,4.03-7.78,5.04l13.32,21.82H268.13z M267.62,26.14c0-1.2-0.25-2.17-0.76-2.92c-0.51-0.74-1.16-1.32-1.95-1.73   c-0.8-0.41-1.69-0.68-2.68-0.83c-0.99-0.14-1.94-0.22-2.86-0.22h-6.58v11.88h5.86c1.01,0,2.05-0.08,3.11-0.25   c1.06-0.17,2.03-0.47,2.89-0.9s1.58-1.06,2.13-1.87C267.34,28.49,267.62,27.43,267.62,26.14z"></path>
	<path class="st3" d="M319.68,61.49l-18.94-23.47h-0.14v23.47h-12.02V10.51h12.02v20.74h0.22l18.22-20.74h15.41l-21.96,23.47   l23.26,27.5H319.68z"></path>
</g>
<g>
	<path class="st3" d="M121.7,99.68h-2.18V77.03h2.18v2.59h0.1c0.62-0.98,1.45-1.72,2.48-2.22c1.03-0.5,2.08-0.75,3.15-0.75   c1.17,0,2.23,0.2,3.18,0.61s1.76,0.96,2.43,1.66s1.19,1.54,1.57,2.5s0.56,2,0.56,3.1c0,1.11-0.19,2.14-0.56,3.1s-0.9,1.79-1.57,2.5   s-1.48,1.26-2.43,1.66c-0.95,0.4-2.01,0.61-3.18,0.61c-1.07,0-2.12-0.25-3.15-0.75s-1.86-1.22-2.48-2.16h-0.1V99.68z M132.87,84.51   c0-0.83-0.13-1.62-0.38-2.35c-0.26-0.74-0.62-1.38-1.1-1.92s-1.07-0.98-1.78-1.3c-0.7-0.32-1.5-0.48-2.4-0.48   c-0.83,0-1.6,0.16-2.3,0.46c-0.7,0.31-1.31,0.74-1.82,1.28c-0.51,0.54-0.91,1.18-1.2,1.92s-0.43,1.53-0.43,2.38   c0,0.85,0.14,1.65,0.43,2.38c0.29,0.74,0.69,1.37,1.2,1.9c0.51,0.53,1.12,0.96,1.82,1.26c0.7,0.31,1.47,0.46,2.3,0.46   c0.9,0,1.7-0.16,2.4-0.46c0.7-0.31,1.3-0.74,1.78-1.28s0.85-1.18,1.1-1.92C132.74,86.13,132.87,85.35,132.87,84.51z"></path>
	<path class="st3" d="M142.98,71.27c0,0.45-0.16,0.82-0.48,1.1c-0.32,0.29-0.67,0.43-1.06,0.43s-0.74-0.14-1.06-0.43   c-0.32-0.29-0.48-0.66-0.48-1.1c0-0.45,0.16-0.82,0.48-1.1c0.32-0.29,0.67-0.43,1.06-0.43s0.74,0.14,1.06,0.43   C142.82,70.45,142.98,70.82,142.98,71.27z M142.53,92h-2.18V77.03h2.18V92z"></path>
	<path class="st3" d="M159.59,80.45c-0.36-0.58-0.89-1.05-1.58-1.42c-0.69-0.37-1.45-0.56-2.26-0.56c-0.88,0-1.66,0.16-2.37,0.46   c-0.7,0.31-1.31,0.74-1.81,1.28c-0.5,0.54-0.89,1.18-1.15,1.92c-0.27,0.74-0.4,1.53-0.4,2.38c0,0.85,0.13,1.64,0.4,2.37   c0.27,0.73,0.65,1.36,1.14,1.9s1.09,0.97,1.79,1.28c0.7,0.31,1.49,0.46,2.37,0.46c0.96,0,1.77-0.18,2.43-0.54   c0.66-0.36,1.21-0.83,1.63-1.41l1.63,1.22c-0.64,0.79-1.42,1.42-2.35,1.89c-0.93,0.47-2.04,0.7-3.34,0.7c-1.22,0-2.31-0.2-3.3-0.59   c-0.98-0.39-1.82-0.94-2.51-1.65c-0.69-0.7-1.23-1.54-1.62-2.5c-0.38-0.96-0.58-2.01-0.58-3.14c0-1.13,0.19-2.18,0.58-3.14   c0.38-0.96,0.92-1.79,1.62-2.5c0.69-0.7,1.53-1.25,2.51-1.65c0.98-0.39,2.08-0.59,3.3-0.59c1,0,2.02,0.22,3.06,0.66   c1.03,0.44,1.87,1.08,2.51,1.94L159.59,80.45z"></path>
	<path class="st3" d="M167.52,83.78h0.1l6.91-6.75h3.14l-7.55,6.85l8.32,8.13h-3.2l-7.62-7.87h-0.1V92h-2.18V67.81h2.18V83.78z"></path>
	<path class="st3" d="M184.32,92h-2.18V67.81h2.18V92z"></path>
	<path class="st3" d="M204.26,84.07c0,0.15,0,0.31,0,0.48s-0.01,0.35-0.03,0.54h-12.42c0.02,0.75,0.17,1.45,0.45,2.11   c0.28,0.66,0.66,1.24,1.15,1.73c0.49,0.49,1.07,0.88,1.73,1.17c0.66,0.29,1.38,0.43,2.14,0.43c1.13,0,2.11-0.26,2.93-0.78   s1.45-1.12,1.87-1.81l1.63,1.28c-0.9,1.13-1.88,1.94-2.96,2.43c-1.08,0.49-2.23,0.74-3.47,0.74c-1.11,0-2.14-0.2-3.09-0.59   s-1.77-0.94-2.45-1.65c-0.68-0.7-1.22-1.54-1.62-2.5s-0.59-2.01-0.59-3.14c0-1.13,0.19-2.18,0.58-3.14s0.92-1.79,1.6-2.5   s1.48-1.25,2.4-1.65s1.91-0.59,2.98-0.59c1.17,0,2.21,0.2,3.1,0.59s1.64,0.93,2.24,1.6c0.6,0.67,1.05,1.46,1.36,2.35   C204.11,82.08,204.26,83.04,204.26,84.07z M202.05,83.36c-0.06-1.41-0.52-2.58-1.36-3.5c-0.84-0.93-2.04-1.39-3.6-1.39   c-0.73,0-1.4,0.13-2.02,0.4c-0.62,0.27-1.16,0.63-1.63,1.09c-0.47,0.46-0.84,0.98-1.12,1.57c-0.28,0.59-0.44,1.2-0.48,1.84H202.05z   "></path>
	<path class="st3" d="M211.65,89.47V92h-2.18V67.81h2.18v11.81h0.06c0.64-0.98,1.47-1.72,2.5-2.22c1.02-0.5,2.08-0.75,3.17-0.75   c1.17,0,2.23,0.2,3.18,0.61c0.95,0.41,1.76,0.96,2.43,1.66s1.19,1.54,1.57,2.5c0.37,0.96,0.56,2,0.56,3.1   c0,1.11-0.19,2.14-0.56,3.1c-0.37,0.96-0.9,1.79-1.57,2.5s-1.48,1.26-2.43,1.66c-0.95,0.4-2.01,0.61-3.18,0.61   c-1.09,0-2.14-0.25-3.17-0.74c-1.02-0.49-1.86-1.22-2.5-2.18H211.65z M222.82,84.51c0-0.83-0.13-1.62-0.38-2.35   c-0.26-0.74-0.62-1.38-1.1-1.92c-0.48-0.54-1.07-0.98-1.78-1.3c-0.7-0.32-1.5-0.48-2.4-0.48c-0.83,0-1.6,0.16-2.3,0.46   c-0.7,0.31-1.31,0.74-1.82,1.28c-0.51,0.54-0.91,1.18-1.2,1.92s-0.43,1.53-0.43,2.38c0,0.85,0.14,1.65,0.43,2.38   c0.29,0.74,0.69,1.37,1.2,1.9c0.51,0.53,1.12,0.96,1.82,1.26c0.7,0.31,1.47,0.46,2.3,0.46c0.9,0,1.7-0.16,2.4-0.46   c0.7-0.31,1.3-0.74,1.78-1.28c0.48-0.54,0.85-1.18,1.1-1.92C222.69,86.13,222.82,85.35,222.82,84.51z"></path>
	<path class="st3" d="M239.72,82.31c0-1.29-0.34-2.25-1.02-2.89c-0.68-0.63-1.67-0.95-2.98-0.95c-0.9,0-1.73,0.16-2.5,0.48   c-0.77,0.32-1.42,0.75-1.95,1.28l-1.22-1.44c0.62-0.62,1.43-1.13,2.45-1.54c1.01-0.41,2.16-0.61,3.44-0.61   c0.81,0,1.57,0.11,2.27,0.34c0.7,0.22,1.32,0.56,1.86,1.01c0.53,0.45,0.95,1.01,1.25,1.7c0.3,0.68,0.45,1.48,0.45,2.4v6.56   c0,0.58,0.02,1.17,0.06,1.79c0.04,0.62,0.11,1.14,0.19,1.57h-1.95c-0.06-0.36-0.12-0.76-0.16-1.18c-0.04-0.43-0.06-0.84-0.06-1.25   h-0.06c-0.68,1-1.46,1.72-2.32,2.16c-0.86,0.44-1.9,0.66-3.12,0.66c-0.58,0-1.17-0.08-1.78-0.24c-0.61-0.16-1.16-0.42-1.66-0.79   c-0.5-0.36-0.92-0.83-1.25-1.41s-0.5-1.28-0.5-2.12c0-1.16,0.29-2.07,0.88-2.75c0.59-0.67,1.37-1.18,2.35-1.51s2.11-0.55,3.38-0.64   s2.59-0.14,3.95-0.14V82.31z M239.08,84.51c-0.9,0-1.8,0.04-2.7,0.11c-0.91,0.08-1.73,0.22-2.46,0.45   c-0.74,0.22-1.34,0.55-1.81,0.98c-0.47,0.43-0.7,0.99-0.7,1.7c0,0.53,0.1,0.98,0.3,1.34c0.2,0.36,0.47,0.66,0.82,0.88   c0.34,0.22,0.72,0.38,1.14,0.48c0.42,0.1,0.84,0.14,1.26,0.14c0.77,0,1.45-0.13,2.05-0.4c0.6-0.27,1.1-0.63,1.5-1.09   c0.41-0.46,0.71-0.99,0.93-1.58c0.21-0.6,0.32-1.23,0.32-1.89v-1.12H239.08z"></path>
	<path class="st3" d="M250.08,92h-2.18V67.81h2.18V92z"></path>
	<path class="st3" d="M258.63,92h-2.18V67.81h2.18V92z"></path>
	<path class="st3" d="M267.94,90.47c0,0.45-0.16,0.85-0.48,1.2c-0.32,0.35-0.74,0.53-1.25,0.53c-0.51,0-0.93-0.18-1.25-0.53   c-0.32-0.35-0.48-0.75-0.48-1.2s0.16-0.85,0.48-1.2c0.32-0.35,0.74-0.53,1.25-0.53c0.51,0,0.93,0.18,1.25,0.53   C267.78,89.62,267.94,90.02,267.94,90.47z"></path>
	<path class="st3" d="M284.52,80.45c-0.36-0.58-0.89-1.05-1.58-1.42c-0.69-0.37-1.45-0.56-2.26-0.56c-0.88,0-1.66,0.16-2.37,0.46   c-0.7,0.31-1.31,0.74-1.81,1.28s-0.88,1.18-1.15,1.92c-0.27,0.74-0.4,1.53-0.4,2.38c0,0.85,0.13,1.64,0.4,2.37   c0.27,0.73,0.64,1.36,1.14,1.9c0.49,0.54,1.09,0.97,1.79,1.28c0.7,0.31,1.49,0.46,2.37,0.46c0.96,0,1.77-0.18,2.43-0.54   c0.66-0.36,1.21-0.83,1.63-1.41l1.63,1.22c-0.64,0.79-1.42,1.42-2.35,1.89c-0.93,0.47-2.04,0.7-3.34,0.7c-1.22,0-2.32-0.2-3.3-0.59   c-0.98-0.39-1.82-0.94-2.51-1.65c-0.69-0.7-1.23-1.54-1.62-2.5c-0.38-0.96-0.58-2.01-0.58-3.14c0-1.13,0.19-2.18,0.58-3.14   c0.38-0.96,0.92-1.79,1.62-2.5s1.53-1.25,2.51-1.65c0.98-0.39,2.08-0.59,3.3-0.59c1,0,2.02,0.22,3.06,0.66   c1.03,0.44,1.87,1.08,2.51,1.94L284.52,80.45z"></path>
	<path class="st3" d="M305.09,84.51c0,1.13-0.2,2.18-0.59,3.14s-0.94,1.79-1.65,2.5c-0.7,0.7-1.55,1.25-2.53,1.65   s-2.06,0.59-3.23,0.59c-1.15,0-2.22-0.2-3.2-0.59c-0.98-0.39-1.82-0.94-2.53-1.65c-0.7-0.7-1.25-1.54-1.65-2.5   s-0.59-2.01-0.59-3.14c0-1.13,0.2-2.18,0.59-3.14s0.94-1.79,1.65-2.5s1.55-1.25,2.53-1.65c0.98-0.39,2.05-0.59,3.2-0.59   c1.17,0,2.25,0.2,3.23,0.59s1.82,0.94,2.53,1.65s1.25,1.54,1.65,2.5S305.09,83.38,305.09,84.51z M302.79,84.51   c0-0.83-0.13-1.62-0.4-2.35c-0.27-0.74-0.65-1.38-1.14-1.92c-0.49-0.54-1.09-0.98-1.79-1.3c-0.7-0.32-1.49-0.48-2.37-0.48   s-1.66,0.16-2.35,0.48c-0.69,0.32-1.29,0.75-1.78,1.3c-0.49,0.54-0.87,1.18-1.14,1.92s-0.4,1.52-0.4,2.35s0.13,1.62,0.4,2.35   c0.27,0.74,0.65,1.38,1.14,1.92c0.49,0.54,1.08,0.97,1.78,1.28c0.69,0.31,1.48,0.46,2.35,0.46s1.66-0.16,2.37-0.46   c0.7-0.31,1.3-0.74,1.79-1.28c0.49-0.54,0.87-1.18,1.14-1.92C302.65,86.13,302.79,85.35,302.79,84.51z"></path>
	<path class="st3" d="M314.36,77.46c0.88-0.54,1.87-0.82,2.96-0.82c0.4,0,0.83,0.04,1.26,0.13c0.44,0.09,0.86,0.25,1.28,0.5   c0.42,0.25,0.8,0.57,1.15,0.98c0.35,0.41,0.66,0.93,0.91,1.57c0.51-1.02,1.21-1.81,2.1-2.35c0.89-0.54,1.94-0.82,3.15-0.82   c1.9,0,3.32,0.57,4.27,1.7c0.95,1.13,1.42,2.62,1.42,4.48V92h-2.18v-8.29c0-1.58-0.29-2.85-0.88-3.81   c-0.59-0.96-1.58-1.44-2.99-1.44c-0.79,0-1.46,0.16-2,0.48c-0.54,0.32-0.98,0.74-1.31,1.26c-0.33,0.52-0.57,1.12-0.72,1.78   s-0.22,1.34-0.22,2.05V92h-2.18v-8.74c0-0.72-0.05-1.39-0.16-1.98c-0.11-0.6-0.29-1.1-0.56-1.52s-0.63-0.74-1.1-0.96   c-0.47-0.22-1.07-0.34-1.79-0.34c-0.51,0-1.03,0.12-1.55,0.35c-0.52,0.23-0.99,0.59-1.41,1.07c-0.42,0.48-0.75,1.09-1.01,1.82   s-0.38,1.61-0.38,2.61V92h-2.18V80.32c0-0.41-0.01-0.93-0.03-1.57s-0.05-1.22-0.1-1.73h2.08c0.04,0.41,0.07,0.85,0.1,1.34   c0.02,0.49,0.03,0.9,0.03,1.22h0.06C312.81,78.71,313.47,78,314.36,77.46z"></path>
</g>
</svg>
