<?xml version="1.0" encoding="UTF-8"?>
<svg preserveAspectRatio="xMidYMid slice" width="332px" height="190px" xmlns="http://www.w3.org/2000/svg" xmlns:xlink="http://www.w3.org/1999/xlink" version="1.1" id="Layer_1" x="0px" y="0px" viewBox="0 0 252 144" style="enable-background:new 0 0 252 144;" xml:space="preserve">
<style type="text/css">
	.st0{fill:#5E0F09;}
</style>
<g>
	<path class="st0" d="M42.9,84.2c-6.2,0-14.3-3-19.7-8.6l5.2-4.7c3.6,3.3,9.1,6.5,14.4,6.5c7.6,0,12.9-4.5,12.9-11.3   C55.8,51.2,25,53.7,25,34.4c0-10.5,8.9-15.9,19.2-15.9c7.9,0,13.7,3.3,17.9,8.2l-5.2,4.7c-3.4-3.7-7.2-6.2-12.7-6.2   c-6.6,0-11.5,3.7-11.5,8.8c0,13.7,30.8,12,30.8,32C63.5,76.2,55.6,84.2,42.9,84.2z"></path>
	<path class="st0" d="M87.3,83.9C73.7,83.9,67,73.1,67,58.3s6.7-25.7,20.3-25.7s20.3,10.9,20.3,25.7   C107.7,73.2,100.9,83.9,87.3,83.9z M87.3,37.7c-9.3,0-14.2,8.6-14.2,20.6c0,11.9,4.9,20.6,14.2,20.6s14.3-8.6,14.3-20.5   C101.6,46.4,96.6,37.7,87.3,37.7z"></path>
	<path class="st0" d="M178.9,83.2V41.3c0-13-4.2-16.3-11.9-16.3c-3.9,0-8.1,2.1-10.9,5.3c-2.2,2.5-3.4,5.7-3.4,8.9v44.1h-7.5v-42   c0-13-4.2-16.3-11.9-16.3c-3.9,0-8.1,2.1-10.9,5.3c-2.2,2.5-3.4,5.7-3.4,8.9v44.1h-7.5V19.5h7.5v5.9c2.4-2.8,7.4-6.9,15.1-6.9   c7.5,0,13.5,2.2,16.3,8.7c3.9-5.3,10.3-8.7,17.3-8.7c11.1,0,18.5,4.6,18.5,20.5v44.3h-7.3V83.2z"></path>
	<path class="st0" d="M223.2,83.1V78c-3.3,3.8-7.5,6-12.9,6c-13.6,0-20-10.8-20-25.7c0-14.8,6.3-25.7,19.9-25.7   c6.1,0,10.2,2.4,13,5.4v-4.6h5.8v49.7C229,83.1,223.2,83.1,223.2,83.1z M223.2,53.5c0-8.4-3.9-15.8-12.9-15.8   c-9.3,0-14,8.6-14,20.6c0,11.9,4.6,20.5,14,20.6c7.3,0.1,12.9-6.8,12.9-16.1V53.5z"></path>
	<g>
		<path class="st0" d="M39.8,126.4c-9.3,0-13.9-7.4-13.9-17.6s4.6-17.6,13.9-17.6c4.8,0,8.4,2,10.7,5.3l-3.4,1.9    c-1.6-2.4-4.2-3.8-7.3-3.8c-6.4,0-9.8,5.9-9.8,14.1s3.4,14.1,9.8,14.1c3.3,0,5.7-1.6,7.4-4.1l3.4,2.1    C48.4,124.3,44.8,126.4,39.8,126.4z"></path>
		<path class="st0" d="M61.3,109.3c0.1,8.1,3.5,13.5,9.4,13.5c3.4,0,5.7-1.4,7.3-4l3.5,1.9c-2.1,3.5-5.6,5.5-10.9,5.5    c-9.2,0-13.6-6.9-13.6-17.6s4-17.5,13.2-17.5c9.7,0,13,7.2,13,18.2H61.3z M70.2,94.6c-5.5,0-8.2,4.4-8.8,11.2H79    C78.5,99.1,76.1,94.6,70.2,94.6z"></path>
		<path class="st0" d="M92.2,125.8V91.7h4v30.6h13.5v3.5C109.7,125.8,92.2,125.8,92.2,125.8z"></path>
		<path class="st0" d="M116.4,125.8V91.7h4v30.6h13.5v3.5C133.9,125.8,116.4,125.8,116.4,125.8z"></path>
		<path class="st0" d="M161.3,125.8v-3.5c-2.2,2.6-5.1,4.1-8.9,4.1c-9.3,0-13.7-7.4-13.7-17.6s4.3-17.6,13.7-17.6    c4.2,0,7,1.6,8.9,3.7v-3.1h4v34.1L161.3,125.8L161.3,125.8z M161.3,105.4c0-5.8-2.7-10.8-8.9-10.8c-6.4,0-9.6,5.9-9.6,14.1    s3.1,14.1,9.6,14.1c5,0,8.9-4.7,8.9-11V105.4z"></path>
		<path class="st0" d="M195.3,126.4l-11.1-16h-3.5v15.4h-4V91.7h8.5c8.8,0,10.8,5.6,10.8,9.2c0,3-1.4,7.8-7.3,9.1l9.8,13.9    L195.3,126.4z M185.3,95.2h-4.5v11.7h4.5c5.1,0,6.6-3.2,6.6-6C191.9,98.1,190.4,95.2,185.3,95.2z"></path>
		<path class="st0" d="M217.1,126.4c-3.3,0-7.6-1.6-10.5-4.6l2.8-2.5c2,1.7,4.9,3.5,7.7,3.5c4.1,0,6.9-2.4,6.9-6    c0-8.1-16.5-6.7-16.5-17.1c0-5.6,4.8-8.5,10.3-8.5c4.2,0,7.3,1.7,9.6,4.4l-2.8,2.5c-1.8-2-3.8-3.4-6.8-3.4c-3.5,0-6.1,2-6.1,4.7    c0,7.4,16.5,6.5,16.5,17.2C228.1,122.1,223.9,126.4,217.1,126.4z"></path>
	</g>
</g>
</svg>
