<?xml version="1.0" encoding="UTF-8"?>
<svg preserveAspectRatio="xMidYMid slice" width="68px" height="28px" xmlns="http://www.w3.org/2000/svg" xmlns:xlink="http://www.w3.org/1999/xlink" version="1.1" id="Layer_1" x="0px" y="0px" viewBox="0 0 348 144" style="enable-background:new 0 0 348 144;" xml:space="preserve">
<style type="text/css">
	.st0{fill-rule:evenodd;clip-rule:evenodd;fill:#ED1C24;}
	.st1{fill:#ED1C24;}
</style>
<g>
	<path class="st0" d="M99,109.3c-0.1,1-0.3,2.3,0.3,2.9C99.6,111.5,99.4,109.9,99,109.3z"></path>
	<path class="st0" d="M104.7,121.9c0,0.9,0.3,1.6,0.2,2.6c1.2,0,1.2,1.2,2.5,1.1c0.3-0.6,0.2-2,0-2.6   C106.1,122.7,105.9,122.3,104.7,121.9z"></path>
	<path class="st0" d="M105.7,118.1c0-0.8,0-1.5-0.2-2.1c-1.4-0.2-1.3-2.3-2.8-2.9c-0.1,0.6,0.2,1.5-0.3,1.6   c-0.6-0.6,0.7-2.7-0.6-3.2c-0.3,0.5,0.3,1-0.3,1.1c0-1.5-0.3-2.6-1.4-2.9c-0.9,0.6-0.1,2.9-0.6,3.4c-0.1-0.9-0.4-0.5-0.9-0.3   c-0.3-1.3,0.2-2.3-0.2-3.7c-0.5-0.1-0.3,0.4-0.8,0.3c0-0.5,0-0.9-0.5-0.8c-0.4,0.2,0,1.2-0.6,1.1c-0.1-0.3,0.2-1.1-0.2-1.1   c-0.4,0.1,0.1,1.1-0.5,1c0.2-1.3-0.6-1.3-0.5-2.1c-0.5,0.2-0.9-0.6-0.9,0.2c-0.1,0.7,0.9,0.2,0.8,0.8c-0.5,0.3-0.8-0.1-1.1,0.2   c-0.2,1.3,0.4,2.4-0.3,3.1c-0.1-1.2,0.2-2.9-0.2-3.9c-0.4,0.2-1.3-0.8-1.1-1.5h-0.6c-0.3,0.5-0.2,1.3-0.8,1.1   c-0.2,1,0.5,1.1,0.5,1.9h-0.6c0-1.3,0.1-2.6-0.2-3.7c-0.9-0.3-0.9,0.3-1.4-0.3c-0.3,1.1,0.2,2.5-0.3,3.1c-0.2-0.1-0.4-0.3-0.5-0.5   c-0.1-0.7,0.1-1,0.5-1.3c-0.4-0.2-0.6-0.9-0.3-1.3c-1-0.1-0.7-0.8-1.4-1c-0.6,1.7,0.2,4.5-0.6,5.6c-0.1-2.4,0-4-0.2-6.1   c-0.4-0.1-0.7-0.2-0.8-0.5c0-0.5,0.8-0.2,0.8-0.8c-0.4-0.2-0.9-0.4-1.2-0.6c-0.4,2,0,5.2-0.5,7.1c-0.7-2,0.9-5.9-1.4-6.5   c-0.7,4.2-0.1,8.5-0.3,13.2c0.6,0.2,0.9,0.7,1.5,0.8c0.1-2.8-0.1-4.6,0.2-6.6c0.5,2,0.1,4.5,0.2,7.1c0.6,0.2,0.9,0.6,1.7,0.6   c0-2.6-0.1-5.6,0.2-7.6c1,2.5-1.2,7.7,1.5,8.7c0.7-2.2-0.2-4.2,0.5-6.6c0.8,0.9-0.2,2.2,0.3,3.6c0.6,0.3,1,0.7,1.7,0.8   c0-0.2-0.1-0.6,0.2-0.6c0.1,1.4,1.2,1.6,2.2,2.1c0.8-0.7,0.4-2.2,0-2.9c0.5,0,0.3-0.8,0.8-1c0.2,1.5-0.2,2.9,0.2,4.4   c1.6,0.5,2.4,1.8,4.2,2.1c0.4-0.2-0.1-1.3,0.3-1.5v1.8c1,0.3,1.7,1.5,2.8,1.1c0.6,1.1,1.7,1.6,2.9,1.9c0-0.9,0.1-1.9-0.2-2.6   c-1.7-0.7-3.5-1.4-4.5-2.9c3.2,0.8,4.5,2.4,7.6,3.2C108,119.5,106.6,116.3,105.7,118.1z"></path>
	<path class="st0" d="M102.3,138.2c-0.3,0.6-0.2,2,0.3,2.3c0.3-0.8,0.3-1.3,0.2-2.3H102.3z"></path>
	<path class="st0" d="M105.5,126.6c0.1-0.7-0.1-1.1-0.6-1.1c-0.1,0.3,0.2,1-0.3,0.8c0.1-0.5-0.3-0.6-0.2-1.1c-0.6-0.1-1.6-1.4-2-0.3   c-0.3-0.2,0-1-0.5-1c-0.2,0.5,0,1.4-0.3,1.8c-0.3-0.6-0.1-1.6-0.3-2.3c-0.7-0.1-1-0.6-1.7-0.8c0.1,0.8-0.4,0.4-0.8,0.3   c0.2,0.5,0.2,1.1,0.2,1.8c0.7,0.5,1,1.5,2,1.8c0.5,0.1,0.2-0.5,0.6-0.5c0.2,0.2,0.2,0.6,0.2,1c1.1-0.3,1.3,1.3,2.5,1.5   c0.4-0.3,0.1-1.4,0.5-1.8c0,0.8,0,1.6,0.2,2.3c0.4,0.4,0.3-0.2,0.8-0.2c0.3,0.6,0.6,1.3,1.5,1.3c0.5-0.8,0.2-2,0.2-3.2   C106.7,126.5,106,125.8,105.5,126.6z"></path>
	<path class="st0" d="M109.4,128.1c-0.1,0.7,0.3,2-0.3,2.3c-0.5-0.7-0.1-1.7,0-2.6c-0.3-0.1-0.5-0.3-0.8-0.5   c-0.5,0.9,0.2,2.2-0.2,3.1c0.3,0.1,0.6,0.2,0.5,0.8c0.5,0.2,0.1-0.5,0.6-0.3c0.2,1.1,1.1,1.3,1.9,1.8   C112,130.8,111.2,127.4,109.4,128.1z"></path>
	<path class="st0" d="M108,122.3c1.4,0.1,2.1,1.8,3.4,1.5c-0.1-1.2-1.2-1.6-2-2.1c-0.2-0.8-0.5-1.5-1.4-1.5   C107.6,120.7,107.9,121.7,108,122.3z"></path>
	<path class="st0" d="M124.7,122.3c1.5,0.6,3.2,1.9,4.8,1.9C127.9,123.6,126,122.5,124.7,122.3z"></path>
	<path class="st0" d="M112.1,125.5c-0.4-0.1-0.4,0.2-0.8,0.2c-0.3-1.4-2.5-1.5-3.4-1.8c0.2,0.6,0.1,1.6,0.2,2.4   c1.2,0.5,1.9,1.3,3.1,1.8c0.3-0.4,0-1.4,0.3-1.8c0.3,0.4,0.1,1.4,0.2,2.1c1.5,0.3,1.9,1.7,3.6,1.8c0-0.8,0-1.6,0.2-2.3   C114.7,126.6,112.9,126.7,112.1,125.5z"></path>
	<path class="st0" d="M110.3,115.3c-1.5,0.1-2-0.9-2.5-1.8c-0.1,1.1,0.2,1.7,0,2.6c0.8-0.6,2,0.9,1.2,1.5c-0.6-0.1-0.7-0.8-1.2-1   c-0.2,2.1,1.5,2.2,1.5,4c1,0.3,2.5,1.5,3.2,2.7c0.3,0.5,0.6,1,0.5,1.6c1.3,0.4,3.9,2.4,4,4.4c1.9,1.2,4.3,1.9,4.5,4.8   c0.4,0,0.6,0,0.8-0.2c1.2,1.4,3.1,2,4,3.7c0.4,0.4-0.1,0.6,0,1.1c1.5-0.5,1.5,1.2,3.1,1.1c-0.3-3.4,0.2-6.8,0-10.2   c-0.7-0.7-2.1-0.7-2.5-1.8c0.9,0.1,1.8,1.1,2.5,1c0.2-0.5,0.2-2.6,0.2-3.3c-0.1-0.1-0.2-0.1-0.4-0.2c-0.1-0.8-1.4-1.2-2.3-1.5   c-1.1-0.5-2.3-0.9-2.9-1.1c1.3,1,3.1,1.4,4.5,2.3c-3.6-1.7-7.7-2.3-11.3-3.9c-1.3-0.6-3.2-1-3.7-2.6c2.6,0.7,4.5,2,6.8,2.4   c-0.7-0.4-1.7-0.6-2.2-1.3c-1.2-0.3-2.4-0.8-3.6-1.3c-1.1-0.5-2.5-1-3.1-1.9c3.3,1.2,6.7,3.2,9.9,4   C117.7,118.8,113.9,117.2,110.3,115.3z"></path>
	<path class="st0" d="M117.2,130.5c-0.5-0.9-0.7-2-1.7-2.3v2.3c1.4,0.6,2.2,1.8,3.9,2.1C119.4,131.1,117.9,131.3,117.2,130.5z"></path>
	<path class="st0" d="M96.5,138.1c0.4-0.8-0.2-1.6-0.2-2.1h-0.5C95.6,136.9,95.4,137.8,96.5,138.1z"></path>
	<path class="st0" d="M84.9,127.4c-0.3,1.3-0.4,2.1-0.2,3.2c1.4-0.2,0.2-1.9,0.8-2.9C85.3,127.7,85.4,127.3,84.9,127.4z"></path>
	<path class="st0" d="M86.8,128.9c-0.2,1.3-0.2,2.5,0,4c1-0.8,0.6-2.7,0.5-4H86.8z"></path>
	<path class="st0" d="M89.1,130.7c-0.8,0.8-0.3,2.9-0.3,3.9c0.7,0.2,0.4-0.6,0.9-0.6C88.9,132.8,90.4,131.3,89.1,130.7z"></path>
	<path class="st0" d="M89.3,126.9h-0.6c0.1,1,0,1.2,0,2.3c0.4,0.2,0.6,0.7,0.8,1.1c-0.2-0.6,0.4-0.5,0.3-1   C89.4,128.5,89,128.1,89.3,126.9z"></path>
	<path class="st0" d="M83.1,125.8c-0.4,0.9-0.2,1.8-0.3,3.2h0.8C83.3,127.7,83.9,126.5,83.1,125.8z"></path>
	<path class="st0" d="M81.7,127.4c0.1-0.4,0.2-2.3-0.3-2.9C81.3,125.1,80.8,127.3,81.7,127.4z"></path>
	<path class="st0" d="M98.4,134.2c0,1.7-0.3,2.7,0.3,3.9c0.1-0.3,0.1-0.8,0.3-1c0.2,0.2,0.3,0.5,0.8,0.3c-1-1.2-0.3-2.2-0.8-3.7   C99,134.1,98.6,134,98.4,134.2z"></path>
	<path class="st0" d="M75.4,122.4c0.1-0.7,0.4-1.9-0.2-2.4C75.1,120.5,74.7,122.2,75.4,122.4z"></path>
	<path class="st0" d="M78.3,125.3c0.1-1.2,0.4-2.5-0.2-3.4C78.1,123,77.5,124.8,78.3,125.3z"></path>
	<path class="st0" d="M91.1,117.4c-0.4-0.4-1-0.7-1.4-1.1c-0.8,1.4-0.3,4,1.2,4C91.3,119.6,91.1,118.4,91.1,117.4z"></path>
	<path class="st0" d="M75.4,108.9c0.3,0.9-0.5,2.1,0.8,2.1c0.1-1.1,0.4-1.2,0.2-2.3C75.9,108.7,75.5,108.7,75.4,108.9z"></path>
	<path class="st0" d="M95.9,133.7c-0.4,0.5,0.1,1,0,1.6c0.5-0.1,0.6,0.2,1.1,0.2c0-0.6,0-1.1-0.2-1.5   C96.2,134.5,96.4,133.8,95.9,133.7z"></path>
	<path class="st0" d="M98.5,121.9c-0.6-0.3-1.4-1.1-2-0.5c-0.8-0.5-1-1.6-2-1.9c-0.5,1.4-0.4,3.3,0.9,3.6c0.5,0.1,0.2-0.7,0.8-0.5   c0.4,0.9,0.8,1.8,2,1.9c0-0.2,0.3-0.2,0.5-0.3C98.8,123.3,98.6,122.7,98.5,121.9z"></path>
	<path class="st0" d="M94.2,136.5c-0.4,0.1-0.3-0.3-0.8-0.2c-0.3,0.5-0.3,1.9,0.3,2.1C94.6,138.2,94.1,137.5,94.2,136.5z"></path>
	<path class="st0" d="M91.1,131.6c0.3-0.2,0.6-0.5,0.8-0.8c-0.3-0.6-0.6-1.1-0.9-1.6C91,130,90.8,131.1,91.1,131.6z"></path>
	<path class="st0" d="M95.9,138.1c-0.4,1-0.3,2.5,0.8,2.7C97,139.8,96.9,138.2,95.9,138.1z"></path>
	<path class="st0" d="M91.9,136c-0.3-1.2,0.2-2.9-0.8-3.9C91,133.4,90,135.9,91.9,136z"></path>
	<path class="st0" d="M93.9,130.3h-0.6c-0.2,0.9-0.3,2.6,0.2,3.2c0-0.3,0.1-0.5,0.3-0.6c0.2,0.1,0,0.8,0.5,0.6   C94.6,132.5,93.5,131.9,93.9,130.3z"></path>
	<path class="st0" d="M171.9,142c-0.6-0.8-1.9-1-2.5-1.8c-0.6-0.1-0.5-0.1-1.1,0c-1.5-1.2-4.2-1.5-5.6-2.6c-0.1,0,0.1-0.4,0-0.5   c-0.4-0.2-0.7,0.3-0.9-0.3c0.2,1.4,1.9,5.2,0,5.2C166.7,141.7,173.5,142.2,171.9,142z"></path>
	<path class="st0" d="M92.5,60.5C92.5,60.5,92.5,60.5,92.5,60.5C92.5,60.4,92.5,60.4,92.5,60.5z"></path>
	<path class="st0" d="M105.8,116.1c0.8,0.1,1.9,1,1.9,1l0.1,0.1c-0.2-0.7-4.4-7.2-10-15.9l-1.9,0c2.9,4.1,6.4,9.2,6.5,10.4   C103.9,112.8,105.4,113.9,105.8,116.1z"></path>
	<path class="st0" d="M161.3,141.8c-1.3-1.3-3.9-1.1-4.6-2.9c1.9,0.1,3.1,1,4.5,1.6c0.1-1.1,0.3-2.5,0-3.7c-0.3-0.3-0.5,0.1-1.1,0   c-0.6-0.3-1-1-1.9-1.3c0,0-0.2,0.3-0.5,0.2c-0.3-0.1-0.6-0.7-0.9-0.8c-2-0.8-3.6-1-5.4-1.8c-1.2-0.5-2.5-1.5-3.4-1.6   c-0.5,0-0.9,0.2-1.4,0.2c-1.2-0.2-2.1-1.2-3.2-1.6c-4.4-1.8-9.1-4-13.3-5.3c1.5,0.8,3.2,1.6,4.6,2.3c0.5,0.2,1.3,0.3,1.4,1   c-2.2-0.3-4.4-2.4-6-2.1c0.4,0.6,1.4,0.6,1.7,1.3c1.1-0.2,1.1,0.6,2,0.5c0.4,1.2,2.5,0.6,2.5,2.3c-2.2-0.7-4-1.8-6.2-2.6   c-0.3,3.2,0,7.3-0.2,11.6c0.6,0.4,1.7,0.3,1.9,1.1c-1,0.2-1-0.5-1.7-0.6C130.1,139.9,154.3,142,161.3,141.8z"></path>
	<path class="st0" d="M141.7,101.5l-1.5,0c9,9,20.2,19.6,26.1,23.3c5.3,4,11.6,8.1,13.1,8.4c11,6.6,13.1,7.7,14.7,8.5   c0.4,0.1,7.6-0.3,8-0.8L161.9,120L141.7,101.5z"></path>
	<path class="st0" d="M79.7,102.4c0-0.5-0.1-0.8-0.2-1.1l-1.1,0c0,0.1-0.1,0.3-0.2,0.3c0-0.1,0-0.2,0-0.3l-1.3,0   c-0.1,1.1,0.1,2.5-0.2,3.4c0-1.6-0.1-2.4-0.1-3.4l-1.2,0c0,0.2,0,0.5-0.1,0.7c-0.3-0.2-0.7-0.4-1.1-0.7l-5.2,0   c0,0.1-0.1,0.1-0.1,0.2c0-0.1,0-0.1,0-0.2l-4.5,0c0,0.8,0,1.7-0.1,2.5c1.3,1.2,2.9,2,4.6,2.7c0.1-1.1-0.2-1.8-0.5-2.4   c1-0.1,0-1.8,0.5-2.3c0.9,0.6,0.3,4.3,0.3,5.2c2.4,1.2,3.7,2.3,5.9,3.4c0.4-0.6,0.1-1.7-0.2-2.3c-0.4-0.2,0.1-0.2,1.5,0.3   c0.5-0.8-0.3-2.3,0.3-2.7c0.1,2.2,0.1,3.5,0,6c0.4,0.3,0.7,0.6,1.4,0.5c-0.6-1.4-0.3-1.7,0-2.9c0.7,0.7-0.1,2.1,0.2,3.4   c0.5,0.1,0.7,0.7,1.4,0.6c0.1-0.2-0.2-0.8,0.2-0.8v1.1c0.5,0.3,1.1,0.9,1.7,0.6c0.1,0.8,0.7,1.1,1.5,1.1c-0.1-5,0.2-8.2-0.2-12.6   c-0.3-0.2-0.7-0.5-1.2-0.5c-0.3,0.9,0.2,2-0.3,2.4c0.1-1.4,0-3.1-1.4-3.4h0C80,101.7,80.1,102.4,79.7,102.4z"></path>
	<path class="st0" d="M337.9,86.9c0.2-2.1-1.6-2.5-3.1-1.8c0.1,0.8-0.3,4.9-0.2,5.8c-0.9,0-1.6,0.2-2.3,0.3   c-0.5-0.3-1.6-0.4-2.9-0.5v-2.6h-6.6v2.5c-0.2,0-0.3,0-0.5,0v-7.7h-5.6v7.6c-0.6-0.1-1-0.1-1.3-0.2c-0.1-1.6,0.5-11.4-0.8-12.1   c-1.9,0.5-2.8-0.5-4.8-0.3c-0.2,0-0.1,0.3-0.2,0.5c-0.8-0.2-1.8,0.1-2.9,0c-0.3,0.3-0.7,0.5-0.8,1.1c-1.6,0-2.8-2.9-4.2-2.3   c0,1.6,0,7.8-0.2,8.8h-0.8c-0.6-2.3,0.4-11.1-0.6-12.9c-0.6-0.1-0.9,0.3-1.5,0.2c-0.5,2.4-0.4,9.1-0.8,11.6   c-1.3-0.1-0.3-7.5-0.6-8.6c-1.4-0.9-5.4-4.7-6.8-4.4c-0.3,0.6-0.1,12.1-0.2,12.9c-0.4,0.3-1.2,0-1.2,0.6c-0.5-0.1-0.5-0.7-1.1-0.8   c0-1.8,0.1-13.1-0.5-14.1c-0.7,0-1.6,0.4-1.7-0.6c-0.8,0.1-2.3,0-2.9,0c-0.3,0-0.1,0.6-0.2,0.8c-0.6,0.2-1-0.4-1.4,0   c-0.7,0.5,0.2,11.6-0.6,12c-0.1-2.4-0.9-13.3-1.8-14.8c-0.6,0.2-1.7,0.7-2-0.2c-0.4,0.4-5.2,1-5.7,0.3c-0.7,2-0.2,14.7-0.5,16.9   c-0.5,0.1-0.8-0.4-1.5-0.2v-1c-0.7-0.4-1.1-0.5-1.9-0.6c-0.5-1.1-5.8-46.9-6.9-53c-1.1,6.4-6.3,55.5-7.4,55.8   c0.2-1.2-0.6-21.9-0.6-21.9l-2.9-1.9l-2.7,1.8c0,0-0.5,4.6-0.2,6.1c-1.8-0.2-0.4,0.3-1.8,0c-0.1-1.7-0.1,0,0-1.7   c-1.4-1.3-6.2-0.3-7.3-0.3v17.4c-0.6,0-4.3,0.2-3.7-0.5c0-0.7,0.1-5.1-0.5-5.2c0.2-0.3,0.7-0.2,0.8-0.6V64.2   c-0.6-1.2-2.4-0.8-1.5-1c0.5-0.8,0.3-2.3,0.3-2.3s-4-0.2-5.5-0.3c-0.3,1.1-0.2,1.7-0.3,2.9c-0.4,0.1-1.3-0.3-1.8-0.2   c-0.3,1.3-0.3-4.3-0.2-10.5c-0.8,0-1.7,0.1-2.2-0.3c0.1-2.9-3.5-1.4-4.9-1.9c-0.6,0.2-0.3,1.9-0.3,1.9l-1.7,0l0,7.5   c0,0-0.9,0-0.9,1c0,0.7,0.1,1.3,0.2,2c0.3,1.3,0.1,12.5,0.1,13.8c0,0.6,0,1.2,0,1.9c0,0.2,0.1,0.8,0,1c0,0.1-0.3,0.2-0.3,0.3   c0,1.8-0.2,12.2-0.2,11.3c-0.2-0.6,0-4.7-0.2-5c-0.4,0-1.1-0.2-0.9,0.5c-0.4-1.2-0.5-0.1-1.7-0.3V65.2c-0.4-1.4-1.8-0.4-2.8-1.1   v-3.5c-0.8-0.7-1.8-1.2-2.9-1.5c0-0.7,0.1-1.6-0.2-2.1h-0.6c-0.5,0.1,0,1.3-0.2,2.1c-1.4-0.1-1.7,0.9-2.9,1v4.5   c-0.6,0-1.3,0-1.7,0.2v20.4c-0.3,0.1-0.7,0.2-1.1,0.3v-6.9h-3.3v4.1c-0.3-0.2-0.6-0.3-1-0.3c-0.2-1.7-0.3-18.6-0.3-20.5   c-2.5-1.1-5.7-1.1-8,0c0.1,0.9,0.2,16-0.2,17.5c-0.6-0.1-1-0.2-1.4-0.2c0-4.2,0-11.2,0-21.1c0-16.8-2.2-23.7-2.2-23.7h-7.8   c0,0-2.2,10.1-2.2,23.9c0,2.7,0,5.1,0,7.3c-2,0.2-3.9-0.7-4.4-0.6c-0.7,0.9-2.7,0.4-3.7,1v2.3h-6c-0.5,0.4,0.2,1.3-0.9,1.3v12.9   c-0.6,0-0.8-2.6-0.9-2.4l-0.5,0.8c0-4.7,0-12.1,0-21.9c-0.1-18.6-4.2-48.3-4.2-48.3h-7.3c0,0-4.2,31.8-4.2,47c0,8.7,0,15.2,0,19.9   c-0.3,0.2-0.7,0.3-1,0.4v-3H136v4.2c-0.4,0.2-0.7,0.4-1.1,0.6V42.2l-0.4,0l0,0.4l-3.1,0.6l-4.6-0.6l-0.1-0.4h-0.4v41.4   c-0.4-0.1-0.7-0.1-1-0.2c-0.6-1.2-1.2-2.4-1.8-3.5v-0.1h-0.1c-0.6-0.9-1.2-1.8-1.9-2.5c0.4-0.3-5-9.3-11.4-20   c3.2,6.5,6.2,12.6,8.5,17.3h-4.2V75c-0.1,0.1-0.1,1.2,0,2.8v10c-0.8,0-0.9-0.1-1,0c0.1-0.2,0-4.1,0-5c0-3.5-0.1-7.7-0.1-9.6   c0-0.9-4-1.1-4-0.6c0,2.9,1,14.9-0.1,14.9c-0.3,0-0.7,0-1.1,0V65.3h-8v22.3c-0.2,0-0.3,0-0.5,0c-0.9,0-0.7-18.7-0.7-25.4   c0-2.4-6.2-0.6-6.3-1.7c0.1,1.7,0.7,24.2,0,24.3c-1.5,0.1-0.7-0.4-2.5-0.2c-0.3-19.4-2.5-49.5-2.7-70.8c-0.1-0.5-0.2-1-0.2-1.3   c0.1-0.1,0.2-0.2,0.2-0.3c0-0.2,0-0.5,0-0.8c0,0,0.1,0.2,0.2,0.4c0-0.1,0.1-0.1,0.2-0.1c0.5-0.1,0.9,0.1,0.8,0.6   c0.8-1.3-0.1-3.5,0.2-5.3c-0.1-0.3-0.3-0.6-0.8-0.5c0.5-2.1-1.8-1.3-2.9-1.8c-0.4,0-0.3,0.5-0.3,1c-3.4,0.1-6.3-0.4-9.1-0.2   c0.1-1.1-0.1-1.8-0.3-2.6c-0.8,0-1.3-0.3-2.2-0.2c-0.4,0.6-0.6,1.4-0.6,2.4c-2.6-0.1-6.7-0.8-8.7,0c-0.2-0.5-0.3-1-0.6-1.3h-2.3   c-1.6,1.3-1.8,4-1.7,6.5c0-0.3,0.1-0.7,0.1-1c-0.4,16.1,2.3,26.8,7.2,38.6c0.3,0.4,0.6,0.7,0.9,1c0.9,0.8,3,2.3,3.3,3.7   c0.3,1.1-0.3,2-1,2.8c0.1,0.3,0.3,0.6,0.4,0.9c0.7,1.6,2.2,4.2,4.1,7.5c0.1-1.4,0.4-2.7,0.9-3.8c1-0.1,8.1,5.9,9.2,7.2   c1.6,1.9-2,4.4-4,6.6c5.5,8.8,12.2,16.6,17.5,25l42.3,0.2c-6.3-6.3-11.5-9.2-13.1-11l14.7,11l3.3,0l3.4,4c0.8,0.1,2.9,0.2,3.7,0.3   c5.6-4.3,10.5-0.2,16.3-3.6l0,0.9c7.5-3,14.1,0.5,21.8,0c3.2,0.4,4.1-0.6,7.4-0.6l0.1,1.1c5.5-4,10.1,4,15.8-0.4l-0.4,1.5   c0.9-2.2,3.3,0.7,3.2-2.8l0.2,0l0.8,1c0.3-0.4,0.6-0.7,0.9-1l4.8,0c1.8,0.9,3.7,1.9,6,0.3l-0.3,0.9c1.3-0.7,2.7-1.2,3.6-0.3   c-0.2,0.1-0.1,0.4-0.4,0.6c3.8,3.8,8.3-0.2,12.4,0.1l-0.5,1.7c2.1-2,5.7,0,8.3-0.9l-0.2,0.8l1.4-1.1l0,1.7c3.4,0.2,6.7-1.1,10-1.3   l-0.2,1.5c3.2-2.6,7.8,0.2,11.1-0.9l-0.2,0.5c8.3,0.8,21-1.6,29.3-2.4c-0.1,0.2-0.2,0.6-0.3,0.8c0.4-0.5,0.9-1.4,1.4-1.3   c0.1,0.3-0.2,0.7-0.3,0.8c1.6,2.5,5.2-1.2,6.2,0.8c0.5-0.2,0.8-1.2,0.6-2l25.3,0.1c0,0.2,0,0.4-0.1,0.6c0.3-0.2,0.7-0.4,1-0.5   C336.6,99.7,338.5,86.5,337.9,86.9z M80.6,7.9c0.7,0.1,1.2,0.3,1.7,0.6c0.3-0.3,0.5-0.7,1.2-0.5V10c-1-0.2-1.3-0.1-2,0.3   c-0.5,0.1-0.3-0.5-0.9-0.3V7.9z M83.7,19.3c-0.1,6.5-0.3,10.4-0.3,14.7c-0.9-0.2-3.9-2.3-4.6-3.1c-1.1-1.3-2.2-2-2-4.8   c2.2-2.2,3.9-4.8,6.2-6.8H83.7z M75.5,7.8c1.2-0.1,1.9,0.3,3.1,0.2v1.9c-1.1,0-2.2,0.1-3.1-0.2V7.8z M81.7,15.5   c0.1,2.5-1.8,3.3-3.1,4.8c-1.3,1.4-2.7,4.7-5.3,3.9c-1.3-0.4-2.9-3.1-3.9-4.2c-1.4-1.6-3.8-3.6-2.9-5.3   C71.4,15,76.9,14.7,81.7,15.5z M72.4,7.6c0,0.8,0,1.5,0.2,2.1h-2.9c-0.2-0.6-0.3-1.3-0.3-2.1H72.4z M64.4,7.5h0.9   c0,0.3,1.3-0.1,2,0C67.5,8,67.8,9,67.5,9.6c-1.5-0.2-1.6-0.1-3.1-0.2V7.5z M64.5,18.6c2.6,2.1,4.4,5,6.6,7.4   c0.5,3.7-1.7,4.7-3.4,6.1c0.4,0.6-3,1.8-3.4,2C63.6,33.4,64.4,19.2,64.5,18.6z M75.2,50.9h-1.1c-0.9,0.9-8.2-8.9-8.7-11.3   c0-0.5,2-4.4,2.4-4.8c0.3-0.3,3.6-5.2,6.8-4.4c1.5,0.4,6.8,5.7,8.2,7C82.3,39.3,77.4,49.1,75.2,50.9z M84.8,63.8   c-1.4-0.4-2.1-1.6-2.9-2.9c-1.9-1.5-3.1-3.8-4.9-5.3c-0.1-1.5,0-1.5,0-3.2c1.4-1.1,6.7-6.9,7.1-6.9c0,0,0,0.1-0.1,0.1   c0.1-0.1,0.3-0.1,0.5-0.1C84.7,51.9,84.8,57.5,84.8,63.8z M119.3,87.6V76.1c0.7,1.4,1.3,2.7,1.8,3.7h-1.1v7.1   C119.8,87.3,119.6,87.5,119.3,87.6z M127.2,87.2c-1.4-1.6-2.8,0.4-2.8-0.1c0.1,0,0.3-1.7,0.5-2.8C125.5,85.1,126.4,86.1,127.2,87.2   c1.1,1.3,2.1,2.4,2.4,2.8C128.7,89.2,127.9,88.2,127.2,87.2z"></path>
	<path class="st0" d="M74,66.6c1.7,3.3,3.4,6.4,5.1,9.3c0.1-0.6,0.5-1.3,1.1-2c-2.3-3.7-4.4-7.1-6.1-10C74.1,64.7,74,65.7,74,66.6z"></path>
	<path class="st0" d="M74.1,77.7c0.3-3.4-0.1-7.5-0.1-11.1c-1.7-3.3-3.4-6.8-5-10.4c-0.5,0.5-1,1-1.3,1.5c-1.4,2.1-1.7,4.9-4.5,5.7   c1-0.3-0.2-16.5,0.6-18.2c0.4,0.2,0.8,0.5,1.1,0.8c-3-8.2-5.2-16.5-5.9-24.5c0,1.7,0.1,3.4,0.4,5c-0.7,1-2.1,9.7-2,10.2   c0,3-1.3,8.1-1.2,8.6c-0.5,6.2-1.8,10.7-2.3,16.3c-1.2,4.6-2.3,10-2.9,14.4c-1.1,2.6-1.3,5.9-2.5,8.1c-0.3-4-0.5-28.7-0.6-30.6   c-0.1-1.2-0.7-4.2-2.3-2.3c-0.5-0.7-2.2-0.2-3.2-0.3c0.1-0.6-0.1-0.8-0.5-1c-0.5,0-0.7,0.4-0.6,1c-2,0-3.2,0-4.8-0.5   c-0.3,0.3-0.6,0.6-0.6,1c0.1,8.8,0.5,11.2-0.5,16.5c-0.9-0.1-4.5-0.1-5.7-0.3c-1,2.2-0.1,7.3-0.6,10.5c-0.9,0.1-1.9-0.2-2.3,0   c-0.5,2.4,0.1,6.4-0.6,8.9c-2.7-0.1-5.4-0.9-8.1-1.2c-2.4-0.3-7.5,0.9-9.8,0.9c-0.3,0,1.6,15.8,1.5,15.6c1.7,0.9,4.4,2.7,6.8,1.2   l-0.3,0.5c2.7-0.1,6-0.2,7.9-2.6h0.1c0.6,3.8,1.8,3.1,2.9,4.4c1.9-1.7,5.5-1.1,8.3-2.6c0.3,1.8,2.3-0.7,2.3,1.9   c7.9-4.7,17.3-2.6,25.3,1.5l3.8-0.2l-3.3-2.8c0.1,0,0.2,0.1,0.3,0.1c0-0.7,0-1.4,0-2.1l-1.6,0c0,0.3,0,0.7,0,1.1l-1.3-1.1l1.3,0   c0-2.1,0.5-3.7,1.9-4.6v-1.3c0.8-0.9,1.7,0.5,2.8,0.6c0.2,0,1.5,0.2,1.7,0.5c0.6,0.8,0,3,0.3,4.8H69c0.3-0.7,0-1.4,0.1-2.4   c1.4,0.7,3.4,1.5,5.1,2.4l1.1,0c0.1-1.5,0.1-3.6,0.1-5.5c0-1.4,0.2,0.2,0.2,0.8v2.1c0.2,0.4,0.5,0.7,0.9,1c0,0.6,0,1.1,0,1.6l0.3,0   c0-0.7,0.2-1.3,0.5-1.6c0.4,0.3,0.6,0.9,0.7,1.6l0.3,0c0.2-0.6-0.1-1.8,0.2-2.3c0.4,0.2,0.3,0.7,0.8,0.8c0.2,0.6-0.7,0.1-0.6,0.5   c0.3,0.3,0.6,0.6,0.7,1l0.5,0v0c0,0,0,0,0,0l15.9,0.1c-2.2-3.1-4-5.6-4-5.6c-0.4-0.5-6.2-8.5-12.8-19.9c0,0,0,0.1,0,0.1   C77.8,77,76.1,77.8,74.1,77.7z M29.4,72.8c0-0.1,0-0.2,0.1-0.2c0.6-1.6,1.8-0.5,2.6,0.3c0.3,0.3-1.3,2.7-2.1,2.3   C29.4,74.9,29.3,73.5,29.4,72.8z M34.7,77.4c-0.8,0.3-1.1,1.1-1.7,1.6c-1.2-0.4-2.5-1.4-2.5-2.6c0-0.7,1.5-2.5,2.3-2.4   c1.1,0.1,0.9,1.6,2,1.8C34.6,76.1,34.5,76.8,34.7,77.4z M34.4,80.8c-1.7,0-0.6-1.9-0.2-2.4C34.9,78.9,34,79.8,34.4,80.8z    M29.9,79.3c0.8,0,0.5,0.6,0.5,1.1c0.1,0.5,0.3-0.2,0.6,0c0.1,0.9-0.3,1.3-0.8,1.6C30.1,81.2,30.4,80,29.9,79.3z M33.5,87.9   c0,0.2,1-0.3,1.2,0.2c0.1,0.3,0.1,0.7-0.1,1.1c-1.4-0.3-2.7-0.6-4-0.8c-0.3-1.6-0.1-3.4-0.2-4.5c0.9,0.3,0.3,2.7,0.9,3.7   c0.4-0.2,0.6-0.5,0.6-1c0.3,0.1,0.8,0.1,0.9,0.5c0.3-0.2,0.7-0.8,0.3-1.3c-0.4,0-0.5,0.3-0.9,0.2c-0.6-2.1-1.3-4.7,0.6-5.3   c0.7,0,0.5,1,1.4,0.8c-0.3,1.7-0.3,2.7-0.5,4c0.1,0.6,1.1,0.1,1.2,0.6c-0.3,0.3-0.7,1-1.2,0.6C33.6,86.8,33.9,87.7,33.5,87.9z    M34.7,74.8c-1.9-0.5-1.1-3.6,0.6-3.2C34.5,72.3,35.2,73.4,34.7,74.8z M32.9,72.4c-0.9,0.1-1.6-1.2-2-2.3c1.5-0.3,2.8,0.3,4.5-0.2   C34.3,70.3,33.9,72.3,32.9,72.4z M44.6,67.8c0.5,1.1-0.1,3.6-0.3,5C41.7,71.9,42.9,68.9,44.6,67.8z M41.2,69.3   c-1-0.2-1.8-2.1-2.8-3.1c-0.4-0.4-1-0.3-1.2-1.1c1.9-0.7,2.3-4.2,4.3-4.2c0.6,0,3.5,2.9,3.7,3.7c0.4,1.7-1,2.3-2,3.4   C42.6,68.7,42.6,69.5,41.2,69.3z M45.4,67h0.3c0.4,1.3,0.2,5,0.3,7.6C43.4,73.7,45.6,69.8,45.4,67z M45.4,63.2   c-0.7-1-2.4-1.7-2.6-2.9c-0.3-1.9,1.5-2.8,2.8-3.9C46.3,58.2,45.5,61.2,45.4,63.2z M44.3,51.7h1.2v0.8c-0.3,0.3-0.9,0.1-1.2,0V51.7   z M42.1,51.7h1.4v0.8h-1.4V51.7z M44.8,54.6c-0.1,1.2-1.9,3.9-3.4,3.7c-1.3-0.1-2.5-2.3-2.9-3.7H44.8z M39.7,51.5   c0.6-0.1,0.8,0.2,1.4,0.2v0.8h-1.4V51.5z M37.5,51.5h1.5v1c-0.7,0-0.7-0.2-1.4,0C37.5,52.3,37.5,51.9,37.5,51.5z M37.1,60   c0-0.1,0.1-0.6,0.1-1.2c0.1-1.1,0.3-2.5,0.2-2.6c1.3,0.9,3.2,2.1,2.9,3.9c-0.2,1.3-2,1.9-2.6,3.1C36.9,62.7,37.1,60.9,37.1,60z    M38.8,90.2c-0.3-1.1-1.4-1.5-1.4-3c0.9-0.6,2.1-1.3,1.7-2.7H40c0-0.4,0-0.8-0.2-1c-1,0.2-1.4,1-1.7,1.9c-0.6-0.1-0.9,0.2-1.4,0.2   C36.6,85,37,84.9,37.5,85c0.2-2.7-1.1-4.8-0.5-6.9c1.3,1.2,4,2.5,3.1,5c0,0.2,1,5.2,1.6,7.9C40.7,90.7,39.7,90.4,38.8,90.2z    M40,79.5c-0.4,0-1-0.6-0.5-0.5c-0.8-0.9-2-1.5-1.7-3.6c0.7-0.2,0.8-1,0.6-1.8c-0.8-0.2-0.8,1.1-1.4,0.6c0.2-2.6,0-5.5,0.3-7.9H38   c0.1,0.6-0.1,0.9-0.3,1.1c0.1,0.5,0.4-0.2,0.8,0c1.6,1.5,3.1,4.1,0.2,5.3c0.1,0.6,0.5,0.7,0.2,1.3c1.4-0.5,1.6-2.5,3.1-2.3   c1.1,0.2,1.3,1.9,2.3,2.6c-0.2,2.6-0.6,4.9-2,6.1C40.8,80.8,40.5,80.1,40,79.5z M44.5,75.1c1.5,0.3,0.9,2.7-0.3,2.7   C44.2,76.9,44.3,76,44.5,75.1z M55.9,97l-0.2-0.1c0.1,0,0.1,0,0.2,0V97z M57.1,95.9c0.4,0.1,0.7,0.9,0.3,1.3   c-1.1,0.1-1.4-1.2-2.1-0.7l-2.6-2.1c-2.6-0.9-5.2-1.7-7.6-2.5c0.5-0.5,1.1-0.8,1.4-1.5c3.4,0.4,5.5,1.6,9.1,1.9   c0.1,0.1,0.2,0.3,0.2,0.5c0.4-0.6,1.1,0.1,1.7,0.3c0.1,0.4-0.1,0.6-0.5,0.5C57.5,94.3,57.9,95.3,57.1,95.9z M55.9,90.3   C55.3,90.2,55,89.7,55,89c0.3,0.1,0.5,0,0.5-0.3c0.3,0,0.2,0.4,0.6,0.3C56.2,89.8,55.6,89.7,55.9,90.3z M57.6,92.2   c-0.6-0.5-1.6-0.6-1.4-1.9c0.8-0.1,1.1,0.4,1.5,0.6C57.9,91.5,57.5,91.6,57.6,92.2z M58.2,48.3c0.6,11.4-0.5,24.5-0.5,36.2   c-0.6-0.1-0.8,0.2-0.8,0.8c-0.6,0-1.7-0.5-1.9,0.3c-0.5,0.1-0.2-0.7-0.8-0.5c-0.5,0.3-0.1,0.7-0.2,1.3c0.4,0,1.5-0.8,1.7,0.5   c-0.2,0.3-0.5,0.4-0.9,0.5c0.3,0.7,0.6,0.7,0,1.3c-1.1-0.4-0.8-2-1.7-2.3c-0.1-0.3-0.5,0.4-1.1,0.2c-0.1-0.3-0.4-0.4-0.3-1   c-1,0.5-2.1,1-3.2,0.8c-0.3-0.1,0.5-0.9,0-1.3C48,85,48,85.8,47.5,85.3c-0.1,0.5,0.5,0.4,0.3,1h-0.8c-0.1,0.5,0.4,0.3,0.5,0.6   c0.1,0.3-0.2,0.3-0.5,0.3c-0.2,1.6-1,3.8-2.3,4.6c-0.1,0-0.3-0.1-0.4-0.1c0.1-3-0.3-13,1.7-13.5c0.1,1.7,0,3.5,0.3,5.5   c0.9,0.6,1.7,0.6,2.5,1.1c0.9-1.6,1.2-3.9,1.9-5.8c0.5,0.1,0.5,0.8,0.5,1.4c0.6,0.9,0.4,2.8,1.4,3.4c0-1.6-1.4-4-1.2-5.8   c0-0.4-0.4-0.2-0.5-0.5c3.4-13.5,5.7-27.6,7.7-42.3c0.2,2.9,0.4,9.3-0.2,11.9C58.5,47.6,59,48.4,58.2,48.3z M69.8,60.4   c0.2,0,0.3,0,0.3,0.2c-0.3,4.5,0.5,10.1-0.5,13.9c-1.9-1.5-3.2-3.6-4.8-5.3C64.2,64.6,68.9,60.6,69.8,60.4z M66.5,80.7   c-1.2,0-2.7,1.1-3.8,1.5c0-3,0-7.2,0.3-10.3h0.3c2.2,1.5,5.6,5.3,7.1,7.6C69.4,80.1,67.6,79.8,66.5,80.7z M74.9,101.1   c-0.8-0.4-1.9-0.6-2.3-1.5c-1.2,0.3-2.3-1.1-3.6-1.3c-0.1-0.7,0.1-1.2,0.2-1.8c0.6,0.1,0.6,0.8,0.9,1.1c0.5-0.1,0-0.4,0.3-0.6   c0.3,0,0.3,0.2,0.6,0.2c0.3,0.2,0.1,0.9,0.3,1.1c0.3,0,0.3-0.4,0.3-0.8c0.1,0.1,0.3,0.2,0.6,0.2c0.1,0.3-0.1,0.9,0.3,1.3   c0.3,0,0.3-0.4,0.3-0.8c0.4-0.1,0.4,0.2,0.8,0.2c0,0.4-0.1,0.9,0.2,1.1c0.3,0,0.3-0.4,0.3-0.8c0.4,0.1,0.6,0.2,0.9,0.3   C75,99.7,75.2,100.7,74.9,101.1z M77.2,98.8c0.4,0,0.6,0.2,0.6,0.6C77.4,99.6,77.1,99.3,77.2,98.8z"></path>
	<path class="st0" d="M84,45.5C83.8,45.6,83.8,45.7,84,45.5L84,45.5z"></path>
	<path class="st0" d="M87.4,13.8c0.7,2.8,2.9,7.4,3,7.9c1.4,4.6,11.4,21.6,19.7,35.6C100.6,38.1,89.2,15,87.5,11.8   c-0.1,0.1-0.1,0.2-0.2,0.4C87.3,12.7,87.4,13.3,87.4,13.8z"></path>
	<path class="st0" d="M69,56.2c0.2-0.2,0.4-0.5,0.6-0.7c-1.2-2.6-2.2-5.1-3.2-7.5c-0.5-0.7-1-1.4-1.6-2.1   C66.1,49.4,67.5,52.9,69,56.2z"></path>
	<path class="st0" d="M59.1,10.5c-0.5,3.5-0.5,7.2-0.2,11c0-2.6,0.2-5.1,0.3-7.7C59.2,12.9,59.1,11.7,59.1,10.5z"></path>
	<path class="st0" d="M63.9,98.4c0,0.8-0.1,1.8-0.1,2.9h0.5c-0.1-1.5-0.3-2.9-0.2-4.2C63.2,97.1,63.9,97.9,63.9,98.4z"></path>
	<path class="st0" d="M121.4,136.1c-0.1-1.1-0.3-2-1.4-1.9c-0.4,1.7-0.5,5.3,1.7,4.2c0,0.5,0.1,0.8,0.5,1c0.2-1,0.2-2.2,1.4-2.3   C123.3,136.2,122.1,135.6,121.4,136.1z"></path>
	<path class="st0" d="M124.7,139.4c-0.9,0.9,0.6,2.5,1.4,2.3c0.4-0.4-0.6-1.7,0.5-1.6c-0.3-1.4-1.3-2.2-2.5-2.7   c-0.2,0.3-0.4,0.5-0.3,1.1C124.2,138.6,124.6,138.8,124.7,139.4z"></path>
	<path class="st0" d="M117.1,133.1c-0.2-0.7-0.6-1.2-1.4-1.3c-0.4,1.1,0.2,2.3,0,3.7c0.6,0.3,0.8,0.6,1.4,0.2   c0.2,1.1,1.2,1.4,2.2,1.8C119.8,135.3,119.3,132.2,117.1,133.1z"></path>
	<path class="st0" d="M115.2,131.3c-1.2-0.6-2.3-1.2-3.4-1.8c-0.3,0.6-0.3,2.9,0.2,3.7c0.5,0.2,0.4,0,1.1,0c0.1,1.2,1.3,1.2,2,1.8   C115.4,134.1,115.1,132.5,115.2,131.3z"></path>
</g>
<g>
	<g>
		<g>
			<g>
				<g>
					<g>
						<polygon class="st1" points="208.6,82.5 208.6,82.5 208.4,82.4       "></polygon>
						<path class="st1" d="M207.8,82C207.8,82,207.8,82,207.8,82l0.6,0.3C208.2,82.1,207.9,82.1,207.8,82z"></path>
						<path class="st1" d="M207.6,81.9c-0.2-0.2-0.3-0.2-0.3-0.2C207.4,81.7,207.6,82,207.6,81.9z"></path>
						<path class="st1" d="M190.2,72.8C190.2,72.8,190.2,72.9,190.2,72.8C190.2,72.8,190.2,72.8,190.2,72.8z"></path>
						<path class="st1" d="M185.1,71.8L185.1,71.8c0.9,0.2,1.9,0.4,2.9,0.6l-0.1,0c1.2,0.4,2.4,0.6,3.6,1c0.6,0.2,1.2,0.4,1.8,0.6        c0.6,0.2,1.2,0.4,1.8,0.7c0,0-0.1,0-0.1,0c0.1,0,0.3,0.1,0.4,0.1c0,0,0,0-0.1,0c0.5,0.3,1.5,0.6,1.8,0.8        c0.1,0.1,0.2,0.1,0.1,0c0.9,0.4,1.8,0.9,2.8,1.4l1.4,0.7c0.4,0.3,0.9,0.5,1.3,0.8c0.1,0.1,0.1,0.1,0,0.1        c0.8,0.4,1.5,0.9,2.3,1.4c0.7,0.5,1.5,1.1,2.2,1.6c0.1,0-0.1-0.1,0-0.1c-0.4-0.4-0.9-0.6-1.3-0.9l0.1,0        c-0.3-0.2-0.1,0-0.4-0.2c-0.1-0.1,0.1,0,0-0.1c-0.6-0.5-1.4-0.9-2-1.3c-0.1-0.2-0.7-0.5-1-0.7c-0.2-0.1-0.4-0.2-0.5-0.2        c-0.6-0.4-1.2-0.7-1.8-1.1c-0.6-0.3-1.3-0.7-1.9-1c-1.3-0.7-2.6-1.2-3.9-1.8c-0.7-0.2-1.4-0.4-2.1-0.7        c-0.7-0.3-1.5-0.6-2.3-0.8c0,0,0,0,0,0c-0.5-0.1-1.3-0.3-1.8-0.5l-0.5-0.1c-3.6-1-7.5-1.3-11.3-1.3c-4.3,0-8.1,0.5-12.2,1.5        c0,0,0,0,0.1,0c-1.2,0.3-2.3,0.5-3.4,0.7l0,0c-1.4,0.4-2.8,0.6-4.2,1.2c-1.4,0.5-2.7,1.1-3.9,1.8c-1.5,0.7-3.1,1.5-4.8,2.2        c-1.7,0.7-3.4,1.2-5.2,1.2l0,0c-2.8,0-5.5-0.5-8.3-1.1c-2.8-0.8-5.7-1.7-8.5-2.7c-1.7-0.7-4-1.2-5.6-1.7        c-1.7-0.6-3.4-0.8-5.1-1c-1.7-0.1-3.4-0.2-5.2-0.2c-3.2-0.2-6.4,0-9.5-0.1c-1.5,0.1-3.1,0-4.7,0.1l0.1,0        c-0.6-0.1-1.3,0.2-1.7,0.1l0.1,0c-0.3,0-0.7,0.2-0.9,0.2l0,0c-0.4,0.1,0,0-0.3,0c-0.1,0,0,0.1-0.3,0.1c-0.1-0.1-0.9,0.2-1,0        c0.2,0-0.3,0,0.1-0.1c-0.1,0-0.8,0.1-0.7,0.2c0,0.1-0.3,0.2,0.1,0.2l0.1-0.1c0.1,0,0.1,0,0.2,0c0.5-0.1,0.6,0,0.9,0        c0,0,0,0,0,0c0.2-0.1,0.6-0.1,0.8-0.1l0.1,0c0.1,0,0.6-0.2,0.4-0.1c1-0.1,2.2-0.2,3.3-0.3c0.2-0.1,0.9,0,0.6-0.1        c0.3,0.1,1.1,0.1,1.5,0c0,0,0,0-0.1,0c0.6,0.1,0.7-0.1,1.3,0c0.1-0.1,1,0,1.4-0.1c0.1,0,0.1,0,0.1,0.1c1,0,2.2,0,3,0        c0.7-0.1,1.8,0,2.4-0.1c0.5,0,1.4,0.1,2.1,0.1l-0.1,0c0.8,0,1.9,0,2.5,0c0.2,0.1,0.6,0.1,1,0.2c0.6,0,1.7,0.1,2.5,0.1        c0.1,0.1,0.7,0,0.7,0.1c2.4,0,5.2,0.9,7.6,1.8l0,0c0.3,0.1,0.7,0.1,1.1,0.1c0,0,0,0,0,0c0.4,0.1,0.8,0.3,1.3,0.5        c0,0,0,0-0.1,0c0.4,0.1,0.8,0.4,1.3,0.5l0,0l0.3,0.1c0,0,0,0.1-0.2,0c3.8,1.4,7.8,2.6,11.9,3.1l-0.2,0c0.3,0,0.5,0,0.8,0        c0,0,0,0-0.1,0c1,0.1,2.1,0.1,3.1,0.1c0,0-0.2,0,0,0.1c0.7-0.1,1.2,0,1.6-0.2c0,0,0.1,0,0,0.1c2-0.4,4-1.2,5.9-2        c1.5-0.8,3.2-1.6,4.8-2.4l0,0c1-0.5,2.1-0.9,3.3-1.2c1.2-0.3,2.3-0.5,3.5-0.8c1-0.2,1.6-0.4,2.6-0.6l0,0        c1.6-0.4,3.5-0.5,5.2-0.9l-0.1,0.1c0.3-0.1,1.1-0.1,0.9-0.2l0.3,0c1.2-0.3,2.2-0.2,3.6-0.3l-0.1,0c0.4,0,0.8-0.1,1.1-0.1        c0,0,0,0-0.1,0c1.2,0.1,2.6-0.1,3.8,0l-0.1,0c0.6,0,1.7,0.1,2.6,0.1l-0.1,0l0.4,0l0,0C183.1,71.6,184.1,71.6,185.1,71.8z"></path>
						<path class="st1" d="M195.3,74.8L195.3,74.8C195.3,74.8,195.3,74.8,195.3,74.8z"></path>
						<path class="st1" d="M92.7,73.5c0,0-0.1,0-0.1,0C92.6,73.6,92.7,73.5,92.7,73.5z"></path>
					</g>
				</g>
			</g>
		</g>
	</g>
	<g>
		<g>
			<g>
				<g>
					<g>
						<polygon class="st1" points="59.2,73.6 59.2,73.5 59.2,73.6       "></polygon>
						<path class="st1" d="M59.1,73.7C59.1,73.7,59.1,73.7,59.1,73.7L59.1,73.7C59.1,73.5,59.1,73.7,59.1,73.7z"></path>
						<path class="st1" d="M59.1,73.6C59.1,73.6,59.1,73.7,59.1,73.6C59.1,73.6,59.1,73.7,59.1,73.6z"></path>
						<path class="st1" d="M57.5,73.7C57.5,73.7,57.5,73.7,57.5,73.7C57.5,73.7,57.5,73.7,57.5,73.7z"></path>
						<path class="st1" d="M57.1,73.9L57.1,73.9c0.1,0,0.2,0,0.2,0l0,0c0.2,0,0.4-0.1,0.6-0.1c0,0,0,0,0,0c0,0,0,0,0,0c0,0,0,0,0,0        c0,0.1,0.1,0,0.2,0c0,0,0,0,0-0.1c0.2,0,0.3,0,0.5-0.1c0,0,0,0,0,0.1c0.1-0.1,0.3-0.1,0.4-0.1c0,0,0,0,0-0.1        c0,0-0.1,0.1-0.1,0l0,0c0,0,0,0.1,0,0c0,0,0,0,0,0c-0.1,0-0.1,0-0.2,0.1c0-0.1-0.1,0-0.1-0.1c0,0,0,0,0,0.1        c-0.2,0-0.4,0-0.7,0c-0.1,0.1-0.2,0-0.4,0c0,0,0,0,0,0c0,0-0.1,0-0.1,0l0,0.1c-0.3-0.1-0.6,0-0.9-0.1c-0.3,0-0.6-0.1-1,0.1        c0,0,0,0,0,0c-0.1,0-0.2,0-0.3,0l0,0c-0.2,0.1-0.5,0-0.7,0.1c-0.3,0-0.6,0-0.8,0l0,0c-0.2,0.1-0.4-0.1-0.7,0        c-0.2-0.1-0.5,0.1-0.7,0.1c-0.1-0.1-0.3,0.1-0.5,0c-0.3-0.2-0.5-0.1-0.8,0.1c-0.3-0.1-0.5,0.1-0.7,0c-0.1,0.1-0.2-0.1-0.4-0.1        l0,0c0-0.1-0.1,0.1-0.1,0l0,0c0-0.1-0.1,0.2-0.1,0.1l0,0c0,0,0,0,0-0.1c0,0,0,0.1,0,0c0-0.1-0.1,0-0.1-0.1c0,0,0-0.1,0-0.1        c0,0-0.1,0-0.1,0.1c0,0.1,0,0.1,0,0.2l0-0.1c0,0.1,0,0,0,0.1c0,0,0,0.1,0.1,0.1c0,0,0,0,0,0c0-0.1,0,0,0.1,0l0,0        c0,0.1,0-0.1,0,0c0.1,0,0.2,0,0.3,0c0,0,0.1,0,0-0.1c0,0.1,0.1,0.1,0.1,0.1c0,0,0,0,0,0c0,0.1,0.1-0.1,0.1,0        c0-0.1,0.1,0,0.1-0.1c0,0,0,0,0,0.1c0.1,0,0.2,0,0.2,0c0.1-0.1,0.1,0,0.2-0.1c0,0,0.1,0.1,0.2,0l0,0c0.1,0,0.1,0,0.2-0.1        c0,0.1,0,0.1,0.1,0.1c0-0.1,0.1,0,0.2-0.1c0,0.1,0.1,0,0.1,0.1c0.2-0.1,0.4-0.1,0.6,0l0,0c0,0,0.1-0.1,0.1-0.2c0,0,0,0,0,0        c0,0,0.1,0.1,0.1,0c0,0,0,0,0,0c0,0,0.1,0.1,0.1,0l0,0l0,0c0,0,0,0.1,0,0.1c0.3,0,0.6-0.1,1-0.1l0,0l0.1,0c0,0,0,0,0,0        c0.1,0,0.2,0,0.2,0c0,0,0,0,0,0.1c0.1-0.1,0.1,0.1,0.1-0.1c0,0,0,0,0,0c0.2,0,0.3,0,0.5,0c0.1-0.1,0.3,0,0.4-0.1l0,0        c0.2-0.1,0.4,0,0.6,0c0.1,0,0.1,0,0.2,0l0,0c0.1-0.1,0.3,0.1,0.4,0l0,0c0-0.1,0.1,0,0.1-0.1l0,0c0.1-0.2,0.2,0.1,0.3,0l0,0        c0,0,0.1,0,0.1,0c0,0,0,0,0,0c0.1,0.1,0.2,0,0.3,0l0,0.1c0-0.1,0.1,0,0.2,0l0,0l0,0l0,0C57,73.9,57.1,73.9,57.1,73.9z"></path>
						<path class="st1" d="M58,73.8C58,73.8,58,73.8,58,73.8C58,73.8,58,73.8,58,73.8z"></path>
						<path class="st1" d="M49.7,74.1C49.7,74.1,49.7,74.1,49.7,74.1C49.7,74.1,49.7,74.1,49.7,74.1z"></path>
					</g>
				</g>
			</g>
		</g>
	</g>
</g>
</svg>
