<?xml version="1.0" encoding="utf-8"?>
<!-- Generator: Adobe Illustrator 27.6.1, SVG Export Plug-In . SVG Version: 6.00 Build 0)  -->
<svg version="1.1" id="Layer_1" xmlns="http://www.w3.org/2000/svg" xmlns:xlink="http://www.w3.org/1999/xlink" x="0px" y="0px"
	 viewBox="0 0 215 215" style="enable-background:new 0 0 215 215;" xml:space="preserve">
<style type="text/css">
	.st0{fill:#601008;}
	.st1{fill:#FFFFFF;stroke:#FFFFFF;stroke-width:8;stroke-miterlimit:10;}
</style>
<rect class="st0" width="215" height="215"/>
<g>
	<path class="st1" d="M73.1,132.5c-9.8,0-22.7-4.7-31.3-13.6l8.3-7.4c5.7,5.2,14.5,10.3,22.9,10.3c12.1,0,20.5-7.1,20.5-17.8
		c0.2-23.5-48.8-19.6-48.8-50.1c0-16.6,14.1-25.1,30.5-25.1c12.5,0,21.8,5.2,28.4,12.9l-8.3,7.4c-5.4-5.8-11.4-9.8-20.2-9.8
		c-10.5,0-18.3,5.8-18.3,13.9c0,21.6,48.9,18.9,48.9,50.5C105.9,119.8,93.3,132.5,73.1,132.5z"/>
	<path class="st1" d="M145.2,186.3c-24.1,0-36-19.2-36-45.6s11.9-45.6,36-45.6c12.4,0,21.8,5.2,27.7,13.7l-8.8,4.9
		c-4.1-6.2-10.9-9.8-18.9-9.8c-16.6,0-25.4,15.3-25.4,36.5s8.8,36.5,25.4,36.5c8.6,0,14.8-4.1,19.2-10.6l8.8,5.4
		C167.4,180.8,158.1,186.3,145.2,186.3z"/>
</g>
</svg>
